<svg width="40" height="40" viewBox="0 0 40 40" fill="none" xmlns="http://www.w3.org/2000/svg">
<path d="M24.7527 18.6073L27.5783 13.8128L35.1945 25.6753L35.198 27.9517L35.1732 12.2864C35.1552 11.9034 34.9518 11.5531 34.6274 11.3466L20.9155 3.45927C20.5948 3.30166 20.188 3.30333 19.8679 3.46416C19.8247 3.48589 19.784 3.50942 19.7452 3.53509L19.6974 3.56518L6.38778 11.278L6.33608 11.3014C6.26969 11.332 6.20259 11.3708 6.13954 11.4159C5.88724 11.5969 5.7196 11.8645 5.66539 12.1647C5.65727 12.2102 5.6513 12.2565 5.64844 12.3032L5.66933 25.0689L12.7634 14.0735C13.6566 12.6154 15.6026 12.1458 17.409 12.1714L19.5293 12.2274L7.03686 32.2617L8.50945 33.1095L21.1516 12.2477L26.7394 12.2274L14.1299 33.6157L19.3846 36.638L20.0124 36.9991C20.2779 37.107 20.591 37.1124 20.8588 37.0158L34.7634 28.9579L32.105 30.4983L24.7527 18.6073ZM25.8308 34.1344L20.5234 25.8046L23.7632 20.307L30.7333 31.2932L25.8308 34.1344Z" fill="#2D374B"/>
<path d="M20.5234 25.8047L25.8308 34.1345L30.7335 31.2933L23.7633 20.3071L20.5234 25.8047Z" fill="#28A0F0"/>
<path d="M35.1978 27.9519L35.1942 25.6754L27.5781 13.813L24.7524 18.6075L32.1048 30.4985L34.7632 28.9581C35.024 28.7464 35.1817 28.4356 35.1983 28.1002L35.1978 27.9519Z" fill="#28A0F0"/>
<path d="M3.28284 30.0986L7.03687 32.2617L19.5293 12.2274L17.409 12.1714C15.6026 12.1458 13.6567 12.6155 12.7634 14.0735L5.66934 25.0689L3.28271 28.7359V30.0986H3.28284Z" fill="white"/>
<path d="M26.7391 12.2275L21.1514 12.2478L8.50928 33.1097L12.928 35.6539L14.1297 33.6158L26.7391 12.2275Z" fill="white"/>
<path d="M37.5528 12.199C37.5061 11.0304 36.8734 9.96055 35.8822 9.33774L21.9907 1.34908C21.0102 0.855352 19.7854 0.854754 18.8034 1.34872C18.6874 1.40723 5.29406 9.17487 5.29406 9.17487C5.10874 9.26371 4.93024 9.36962 4.76224 9.48974C3.87746 10.1239 3.33812 11.1092 3.28271 12.1918V28.7364L5.66934 25.0694L5.64844 12.3037C5.65131 12.257 5.65716 12.2112 5.6654 12.1658C5.71925 11.8654 5.88701 11.5974 6.13955 11.4164C6.20259 11.3713 19.8246 3.4864 19.8679 3.46466C20.1881 3.30383 20.595 3.30216 20.9155 3.45977L34.6274 11.3471C34.9518 11.5536 35.1552 11.9039 35.1732 12.2869V28.1005C35.1566 28.4359 35.0241 28.7466 34.7633 28.9584L32.1049 30.4988L30.7333 31.2937L25.8307 34.1349L20.8587 37.0163C20.5909 37.113 20.2778 37.1076 20.0123 36.9996L14.1298 33.6162L12.9281 35.6542L18.2145 38.6979C18.3893 38.7972 18.5452 38.8853 18.6729 38.9572C18.8709 39.0682 19.0057 39.1424 19.0533 39.1654C19.4291 39.3479 19.9696 39.4542 20.4568 39.4542C20.9035 39.4542 21.339 39.3721 21.7511 39.2107L36.1923 30.8474C37.0212 30.2052 37.5089 29.2367 37.5528 28.1875V12.199Z" fill="#96BEDC"/>
</svg>
