<svg width="40" height="40" viewBox="0 0 40 40" fill="none" xmlns="http://www.w3.org/2000/svg">
<g clip-path="url(#clip0_2694_13083)">
<path d="M10.9654 19.8659C10.8801 21.3611 12.0214 22.6412 13.5041 22.7272C13.5574 22.7272 13.6108 22.7272 13.6641 22.7272C15.1574 22.7272 16.3628 21.5117 16.3521 20.0057C16.3521 18.4998 15.1468 17.2842 13.6534 17.295C12.2241 17.295 11.0401 18.4245 10.9654 19.8659Z" fill="#0033AD"/>
<path d="M0.917252 19.1665C0.437252 19.1342 0.0212515 19.5107 -8.18736e-05 19.9948C-0.0214152 20.4788 0.341251 20.8983 0.821251 20.9199C1.30125 20.9521 1.70658 20.5756 1.73858 20.0916C1.77058 19.6075 1.39725 19.1988 0.917252 19.1665Z" fill="#0033AD"/>
<path d="M10.7945 4.09624C11.2211 3.8811 11.3918 3.34325 11.1785 2.91297C10.9651 2.4827 10.4318 2.31059 10.0051 2.52573C9.57847 2.74086 9.40781 3.26795 9.62114 3.69823C9.83447 4.13926 10.3571 4.32213 10.7945 4.09624C10.7838 4.09624 10.7945 4.09624 10.7945 4.09624Z" fill="#0033AD"/>
<path d="M13.5252 8.90473C14.1865 8.57127 14.4532 7.75374 14.1225 7.08681C13.7918 6.41989 12.9812 6.15096 12.3198 6.48443C11.6585 6.81789 11.3918 7.63542 11.7225 8.30235C12.0532 8.96928 12.8638 9.2382 13.5252 8.90473Z" fill="#0033AD"/>
<path d="M4.33054 12.2067C4.84254 12.5402 5.5252 12.4003 5.86654 11.884C6.1972 11.3676 6.05854 10.6792 5.54654 10.335C5.03454 10.0015 4.35187 10.1414 4.01054 10.6577C3.6692 11.174 3.81854 11.8732 4.33054 12.2067Z" fill="#0033AD"/>
<path d="M5.96244 18.6825C5.21577 18.6394 4.58643 19.2095 4.54377 19.9625C4.5011 20.7155 5.06644 21.3502 5.8131 21.3932C6.55977 21.4362 7.1891 20.8661 7.23177 20.1131C7.27444 19.3709 6.7091 18.7255 5.96244 18.6825Z" fill="#0033AD"/>
<path d="M4.48001 27.7936C3.93601 28.0732 3.71201 28.7402 3.98934 29.2995C4.26667 29.8481 4.92801 30.074 5.48267 29.7944C6.02667 29.5147 6.25067 28.8477 5.97334 28.2884C5.69601 27.7398 5.02401 27.5139 4.48001 27.7936Z" fill="#0033AD"/>
<path d="M9.70648 15.8748C10.4425 16.3588 11.4238 16.1544 11.8931 15.4122C12.3731 14.67 12.1705 13.6803 11.4345 13.207C10.6985 12.723 9.71715 12.9274 9.24781 13.6696C8.76781 14.4011 8.97048 15.3907 9.70648 15.8748Z" fill="#0033AD"/>
<path d="M26.2934 8.79709C26.9121 9.20585 27.7548 9.03374 28.1601 8.40984C28.5654 7.78594 28.3948 6.93614 27.7761 6.52738C27.1574 6.11862 26.3148 6.29073 25.9094 6.91463C25.4934 7.54929 25.6641 8.38833 26.2934 8.79709Z" fill="#0033AD"/>
<path d="M29.0451 4.01023C29.4505 4.27915 29.9838 4.16083 30.2505 3.75206C30.5171 3.3433 30.3998 2.80545 29.9945 2.53653C29.5891 2.26761 29.0558 2.38593 28.7891 2.78394C28.5331 3.1927 28.6505 3.74131 29.0451 4.01023Z" fill="#0033AD"/>
<path d="M26.4961 17.2736C25.0135 17.1875 23.7335 18.3385 23.6588 19.8337C23.5735 21.3289 24.7148 22.6198 26.1975 22.6951C26.2508 22.6951 26.3041 22.6951 26.3468 22.6951C27.8295 22.6951 29.0348 21.4795 29.0348 19.9736C29.0455 18.5429 27.9255 17.3489 26.4961 17.2736Z" fill="#0033AD"/>
<path d="M14.4106 15.6812C14.8692 16.5956 15.7972 17.1764 16.8212 17.1764C18.3039 17.1764 19.5092 15.9609 19.5092 14.4549C19.5092 14.0354 19.4132 13.6159 19.2212 13.2286C18.5492 11.884 16.9279 11.3462 15.6052 12.0239C14.2719 12.7123 13.7386 14.3474 14.4106 15.6812Z" fill="#0033AD"/>
<path d="M35.5199 12.2067C36.0639 11.9271 36.2772 11.2494 35.9999 10.7008C35.7226 10.1522 35.0506 9.93704 34.5066 10.2167C33.9626 10.4964 33.7492 11.1633 34.0159 11.7119C34.3039 12.2605 34.9652 12.4864 35.5199 12.2067Z" fill="#0033AD"/>
<path d="M28.6931 13.0674C27.9145 13.4654 27.5945 14.4227 27.9891 15.208C28.3838 15.9933 29.3331 16.316 30.1118 15.918C30.8905 15.52 31.2105 14.5626 30.8158 13.7773C30.4211 12.9921 29.4718 12.6801 28.6931 13.0674Z" fill="#0033AD"/>
<path d="M19.8931 3.60133C20.5011 3.63361 21.0237 3.1603 21.0664 2.54716C21.1091 1.93401 20.6291 1.40692 20.0211 1.3639C19.4131 1.33162 18.8904 1.79417 18.8477 2.40732C18.8157 3.03122 19.2851 3.55831 19.8931 3.60133Z" fill="#0033AD"/>
<path d="M19.8825 10.6255C20.7572 10.6793 21.5038 10.0016 21.5465 9.11955C21.5998 8.23748 20.9278 7.4845 20.0532 7.44147C19.1785 7.38768 18.4318 8.06537 18.3892 8.94744C18.3465 9.82951 19.0078 10.5825 19.8825 10.6255Z" fill="#0033AD"/>
<path d="M11.3066 26.9329C12.0853 26.5349 12.4053 25.5776 12.0106 24.7923C11.6159 24.0071 10.6666 23.6843 9.88794 24.0823C9.10928 24.4804 8.78928 25.4377 9.18395 26.223C9.57861 27.0082 10.5279 27.3309 11.3066 26.9329Z" fill="#0033AD"/>
<path d="M20.9065 12.9597C20.0958 14.2182 20.4371 15.8963 21.6851 16.7139C22.9331 17.5314 24.5971 17.1872 25.4078 15.9286C26.2185 14.67 25.8771 12.992 24.6291 12.1744C24.1918 11.884 23.6798 11.7334 23.1571 11.7334C22.2505 11.7334 21.4078 12.1959 20.9065 12.9597Z" fill="#0033AD"/>
<path d="M25.5894 24.319C24.9174 22.9744 23.2961 22.4365 21.9734 23.1142C20.6401 23.7919 20.1067 25.4269 20.7787 26.7608C21.4507 28.1054 23.0721 28.6433 24.3947 27.9656C25.7174 27.2986 26.2614 25.6851 25.6001 24.3405C25.6001 24.3297 25.6001 24.3297 25.5894 24.319Z" fill="#0033AD"/>
<path d="M30.2934 24.1255C29.5574 23.6414 28.576 23.8458 28.1067 24.588C27.6267 25.3303 27.8294 26.3199 28.5654 26.7932C29.3014 27.2773 30.2827 27.0729 30.752 26.3307C31.232 25.5992 31.0294 24.6096 30.2934 24.1255Z" fill="#0033AD"/>
<path d="M35.4559 20.0487C35.4986 19.2957 34.9332 18.661 34.1866 18.618C33.4399 18.575 32.8106 19.1451 32.7679 19.8981C32.7252 20.6511 33.2906 21.2857 34.0372 21.3288C34.7732 21.3718 35.4132 20.7909 35.4559 20.0487Z" fill="#0033AD"/>
<path d="M39.1785 19.0805C38.6985 19.0483 38.2825 19.4248 38.2611 19.9088C38.2398 20.3929 38.6025 20.8124 39.0825 20.8339C39.5625 20.8662 39.9678 20.4897 39.9998 20.0056C40.0211 19.5216 39.6585 19.1128 39.1785 19.0805Z" fill="#0033AD"/>
<path d="M35.6693 27.7935C35.1573 27.46 34.4746 27.5999 34.1333 28.1162C33.8026 28.6325 33.9413 29.321 34.4533 29.6652C34.9653 29.9986 35.6479 29.8588 35.9893 29.3425C36.3306 28.8261 36.1813 28.1269 35.6693 27.7935Z" fill="#0033AD"/>
<path d="M10.9438 35.9906C10.5384 35.7217 10.0051 35.84 9.73844 36.238C9.47177 36.6468 9.58911 37.1846 9.98377 37.4536C10.3891 37.7225 10.9224 37.6042 11.1891 37.2062C11.4664 36.8082 11.3491 36.2596 10.9438 35.9906Z" fill="#0033AD"/>
<path d="M29.2053 35.9042C28.7787 36.1193 28.608 36.6572 28.8213 37.0875C29.0347 37.5177 29.568 37.6899 29.9947 37.4747C30.4213 37.2596 30.592 36.7325 30.3787 36.3022C30.1653 35.8612 29.6427 35.6783 29.2053 35.9042C29.216 35.9042 29.2053 35.9042 29.2053 35.9042Z" fill="#0033AD"/>
<path d="M19.0931 27.0408C19.9038 25.7823 19.5624 24.1042 18.3144 23.2759C17.0664 22.4584 15.4024 22.8026 14.5811 24.0612C13.7598 25.3197 14.1118 26.9978 15.3598 27.8261C15.7971 28.1165 16.3091 28.2671 16.8318 28.2671C17.7491 28.2779 18.5918 27.8153 19.0931 27.0408Z" fill="#0033AD"/>
<path d="M13.7066 31.2037C13.088 30.7949 12.2453 30.967 11.84 31.5909C11.4346 32.2148 11.6053 33.0646 12.224 33.4734C12.8426 33.8821 13.6853 33.71 14.0906 33.0861C14.5066 32.4622 14.336 31.6124 13.7066 31.2037Z" fill="#0033AD"/>
<path d="M19.9894 36.399C19.3814 36.3667 18.8588 36.8401 18.8161 37.4532C18.7734 38.0663 19.2535 38.5934 19.8615 38.6365C20.4694 38.6687 20.9921 38.2062 21.0348 37.593C21.0668 36.9691 20.5974 36.442 19.9894 36.399Z" fill="#0033AD"/>
<path d="M20 29.3751C19.1253 29.3213 18.3786 29.999 18.336 30.881C18.2826 31.7631 18.9546 32.5161 19.8293 32.5591C20.704 32.6021 21.4506 31.9352 21.4933 31.0531C21.5466 30.1818 20.8746 29.4181 20 29.3751Z" fill="#0033AD"/>
<path d="M26.4747 31.0961C25.8134 31.4403 25.5467 32.2578 25.8881 32.9248C26.2294 33.5917 27.0401 33.8606 27.7014 33.5164C28.3628 33.1829 28.6294 32.3654 28.2987 31.6985C27.9574 31.0315 27.1467 30.7519 26.4747 31.0961Z" fill="#0033AD"/>
</g>
<defs>
<clipPath id="clip0_2694_13083">
<rect width="40" height="40" fill="white"/>
</clipPath>
</defs>
</svg>
