<svg width="32" height="40" viewBox="0 0 180 180" fill="none" xmlns="http://www.w3.org/2000/svg">
<g clip-path="url(#clip0_4524_229)">
<rect width="180" height="180" rx="90" fill="white"/>
<g clip-path="url(#clip1_4524_229)">
<path fill-rule="evenodd" clip-rule="evenodd" d="M64.2599 44.838C50.2514 52.8624 38.6468 59.4842 38.4722 59.5539C38.2423 59.6453 45.3163 63.7727 64.0664 74.4867L89.9783 89.2931L115.684 74.6051C129.822 66.5267 141.454 59.8541 141.532 59.7776C141.686 59.6264 90.3829 30.2373 89.977 30.2445C89.8411 30.2468 78.2684 36.8141 64.2599 44.838Z" fill="#9CBCFC"/>
<path fill-rule="evenodd" clip-rule="evenodd" d="M38.1622 89.955L38.164 120.15L63.2128 134.46C76.9895 142.331 88.6526 148.995 89.131 149.269L89.9999 149.767V119.537V89.3061L64.1479 74.5331C49.9292 66.4079 38.2652 59.76 38.2279 59.76C38.1905 59.76 38.1608 73.3478 38.1622 89.955Z" fill="#FBFBFC"/>
<path fill-rule="evenodd" clip-rule="evenodd" d="M141.571 59.6155C141.629 59.7721 133.061 64.7635 115.833 74.6099L90.0072 89.3699L90.0036 119.583L90 149.795L90.585 149.453C90.9068 149.265 102.571 142.598 116.505 134.637L141.84 120.163V89.882C141.84 70.123 141.778 59.5628 141.662 59.4913C141.564 59.4305 141.523 59.4868 141.571 59.6155Z" fill="#649CFC"/>
<path fill-rule="evenodd" clip-rule="evenodd" d="M0 90V180H90H180V90V0H90H0V90ZM116.137 44.9437L141.84 59.6304V89.8969V120.163L115.897 134.987C90.337 149.593 89.9483 149.807 89.4825 149.537C89.2229 149.386 77.5687 142.726 63.585 134.738L38.16 120.214V89.9356V59.6569L64.035 44.8632C78.439 36.6282 90.0261 30.1113 90.1723 30.1635C90.3168 30.2152 102.001 36.8662 116.137 44.9437Z" fill="#347CF4"/>
</g>
</g>
<defs>
<clipPath id="clip0_4524_229">
<rect width="180" height="180" rx="90" fill="white"/>
</clipPath>
<clipPath id="clip1_4524_229">
<rect width="180" height="180" fill="white"/>
</clipPath>
</defs>
</svg>
