<svg width="40" height="40" viewBox="0 0 40 40" fill="none" xmlns="http://www.w3.org/2000/svg">
<g clip-path="url(#clip0_2694_13317)">
<path d="M20 40C31.0457 40 40 31.0457 40 20C40 8.95431 31.0457 0 20 0C8.95431 0 0 8.95431 0 20C0 31.0457 8.95431 40 20 40Z" fill="#FF0420"/>
<path d="M14.1678 25.3119C12.9758 25.3119 11.9998 25.0319 11.2398 24.4719C10.4878 23.9039 10.1118 23.0879 10.1118 22.0399C10.1118 21.8159 10.1358 21.5519 10.1838 21.2319C10.3118 20.5119 10.4958 19.6479 10.7358 18.6319C11.4158 15.8799 13.1758 14.5039 16.0078 14.5039C16.7758 14.5039 17.4718 14.6319 18.0798 14.8959C18.6878 15.1439 19.1678 15.5279 19.5198 16.0399C19.8718 16.5439 20.0478 17.1439 20.0478 17.8399C20.0478 18.0479 20.0238 18.3119 19.9758 18.6319C19.8238 19.5199 19.6478 20.3919 19.4318 21.2319C19.0798 22.5999 18.4798 23.6319 17.6158 24.3119C16.7598 24.9839 15.6078 25.3119 14.1678 25.3119ZM14.3838 23.1519C14.9438 23.1519 15.4158 22.9839 15.8078 22.6559C16.2078 22.3279 16.4958 21.8239 16.6638 21.1359C16.8958 20.1919 17.0718 19.3759 17.1918 18.6719C17.2318 18.4639 17.2558 18.2479 17.2558 18.0239C17.2558 17.1119 16.7838 16.6559 15.8318 16.6559C15.2718 16.6559 14.7918 16.8239 14.3918 17.1519C13.9998 17.4799 13.7198 17.9839 13.5518 18.6719C13.3678 19.3439 13.1918 20.1599 13.0078 21.1359C12.9678 21.3359 12.9438 21.5439 12.9438 21.7679C12.9358 22.6959 13.4238 23.1519 14.3838 23.1519Z" fill="white"/>
<path d="M20.7441 25.1678C20.6321 25.1678 20.5521 25.1358 20.4881 25.0638C20.4401 24.9838 20.4241 24.8958 20.4401 24.7918L22.5121 15.0318C22.5281 14.9198 22.5841 14.8318 22.6801 14.7598C22.7681 14.6878 22.8641 14.6558 22.9681 14.6558H26.9601C28.0721 14.6558 28.9601 14.8878 29.6321 15.3438C30.3121 15.8078 30.6561 16.4718 30.6561 17.3438C30.6561 17.5918 30.6241 17.8558 30.5681 18.1278C30.3201 19.2798 29.8161 20.1278 29.0481 20.6798C28.2961 21.2318 27.2641 21.5038 25.9521 21.5038H23.9281L23.2401 24.7918C23.2161 24.9038 23.1681 24.9918 23.0721 25.0638C22.9841 25.1358 22.8881 25.1678 22.7841 25.1678H20.7441ZM26.0561 19.4318C26.4801 19.4318 26.8401 19.3198 27.1521 19.0878C27.4721 18.8558 27.6801 18.5278 27.7841 18.0958C27.8161 17.9278 27.8321 17.7758 27.8321 17.6478C27.8321 17.3598 27.7441 17.1358 27.5761 16.9838C27.4081 16.8238 27.1121 16.7438 26.7041 16.7438H24.9041L24.3361 19.4318H26.0561Z" fill="white"/>
</g>
<defs>
<clipPath id="clip0_2694_13317">
<rect width="40" height="40" fill="white"/>
</clipPath>
</defs>
</svg>
