<svg width="40" height="40" viewBox="0 0 40 40" fill="none" xmlns="http://www.w3.org/2000/svg">
<g clip-path="url(#clip0_2694_13070)">
<path d="M19.7353 8.3897C23.693 8.3897 26.9013 6.5116 26.9013 4.19485C26.9013 1.8781 23.693 0 19.7353 0C15.7776 0 12.5693 1.8781 12.5693 4.19485C12.5693 6.5116 15.7776 8.3897 19.7353 8.3897Z" fill="#E6007A"/>
<path d="M19.7353 39.9971C23.693 39.9971 26.9013 38.119 26.9013 35.8023C26.9013 33.4855 23.693 31.6074 19.7353 31.6074C15.7776 31.6074 12.5693 33.4855 12.5693 35.8023C12.5693 38.119 15.7776 39.9971 19.7353 39.9971Z" fill="#E6007A"/>
<path d="M9.7492 14.1962C11.728 10.7465 11.7152 7.01032 9.72051 5.85116C7.72584 4.692 4.50468 6.54882 2.52586 9.99847C0.547028 13.4481 0.559871 17.1843 2.55454 18.3435C4.54921 19.5026 7.77037 17.6458 9.7492 14.1962Z" fill="#E6007A"/>
<path d="M36.9421 29.998C38.9209 26.5484 38.9091 22.8128 36.9158 21.6544C34.9225 20.4961 31.7024 22.3535 29.7236 25.8032C27.7448 29.2528 27.7565 32.9884 29.7499 34.1467C31.7432 35.3051 34.9632 33.4477 36.9421 29.998Z" fill="#E6007A"/>
<path d="M9.72149 34.1459C11.7162 32.9867 11.729 29.2506 9.75017 25.8009C7.77134 22.3513 4.55019 20.4944 2.55552 21.6536C0.560847 22.8128 0.548004 26.5489 2.52683 29.9986C4.50566 33.4483 7.72681 35.3051 9.72149 34.1459Z" fill="#E6007A"/>
<path d="M36.9173 18.3446C38.9106 17.1862 38.9224 13.4507 36.9435 10.001C34.9647 6.55135 31.7446 4.69391 29.7513 5.85228C27.758 7.01066 27.7462 10.7462 29.7251 14.1959C31.7039 17.6455 34.924 19.503 36.9173 18.3446Z" fill="#E6007A"/>
</g>
<defs>
<clipPath id="clip0_2694_13070">
<rect width="40" height="40" fill="white"/>
</clipPath>
</defs>
</svg>
