<svg width="32" height="40" viewBox="0 0 100 100" fill="none" xmlns="http://www.w3.org/2000/svg">
<mask id="mask0_4523_216" style="mask-type:luminance" maskUnits="userSpaceOnUse" x="0" y="0" width="100" height="100">
<path d="M100 0H0V100H100V0Z" fill="white"/>
</mask>
<g mask="url(#mask0_4523_216)">
<path fill-rule="evenodd" clip-rule="evenodd" d="M49.9681 81.3018C58.4557 81.3018 66.1774 77.9195 71.7932 72.4313C71.9209 72.3037 72.1761 72.3037 72.3676 72.4313L85.3223 85.386L98.7875 98.8512C99.1066 99.1703 98.7875 99.617 98.4046 99.4894L76.8985 92.342C76.7709 92.2782 76.6433 92.342 76.5795 92.4058C68.8577 97.2558 59.732 100.064 49.9681 100.064C22.3357 100.064 0 77.6643 0 50.0957C0 22.4632 22.3995 0.127563 49.9681 0.127563C77.5367 0.127563 99.9362 22.5271 99.9362 50.0957C99.9362 61.9017 95.852 72.7504 89.0236 81.3018C88.896 81.4932 88.6407 81.4932 88.4493 81.3018L62.0294 54.8819C61.7103 54.5628 62.0294 54.1161 62.4123 54.2437L79.1959 59.8595C79.3874 59.9234 79.6426 59.7957 79.7064 59.6043C80.6637 56.6049 81.1742 53.4141 81.1742 50.0957C81.1742 32.8653 67.1985 18.8257 49.9043 18.8257C32.6101 18.8257 18.6343 32.8015 18.6343 50.0957C18.6981 67.2622 32.7377 81.3018 49.9681 81.3018Z" fill="#00A4D6"/>
</g>
</svg>
