<svg width="200" height="58" viewBox="0 0 200 58" fill="none" xmlns="http://www.w3.org/2000/svg">
<mask id="mask0_3735_1219" style="mask-type:luminance" maskUnits="userSpaceOnUse" x="4" y="12" width="36" height="33">
<path d="M38.714 27.3257L34.064 19.138L31.1322 14.0839C30.7281 13.4774 30.0204 12.9722 29.1104 12.9722H13.9487C13.1398 12.9722 12.3316 13.3763 11.9269 14.1851L7.27687 22.3728L4.34507 27.4269C3.94097 28.1345 3.94097 29.0446 4.34507 29.7516L11.9263 42.8928C12.3304 43.6005 13.1392 44.1058 13.948 44.1058H29.1104C29.9192 44.1058 30.7274 43.7016 31.1322 42.8928L38.7134 29.651C39.1181 28.9427 39.1181 28.1339 38.714 27.3257ZM21.4287 33.188C18.9016 33.188 16.7786 31.0651 16.7786 28.538C16.7786 26.0109 18.9016 23.888 21.4287 23.888C23.9557 23.888 26.0787 26.0109 26.0787 28.538C26.0787 31.0657 24.0569 33.188 21.4287 33.188Z" fill="white"/>
</mask>
<g mask="url(#mask0_3735_1219)">
<path d="M16.1707 19.2385H34.0625L31.1307 14.1844C30.7266 13.4767 30.0189 12.9714 29.1089 12.9714H13.9472C13.1384 12.9714 12.3301 13.3755 11.9254 14.1844L7.27539 22.372L16.1707 37.838V19.2385Z" fill="#547DBF"/>
</g>
<mask id="mask1_3735_1219" style="mask-type:luminance" maskUnits="userSpaceOnUse" x="4" y="12" width="36" height="33">
<path d="M38.714 27.3257L34.064 19.138L31.1322 14.0839C30.7281 13.4774 30.0204 12.9722 29.1104 12.9722H13.9487C13.1398 12.9722 12.3316 13.3763 11.9269 14.1851L7.27687 22.3728L4.34507 27.4269C3.94097 28.1345 3.94097 29.0446 4.34507 29.7516L11.9263 42.8928C12.3304 43.6005 13.1392 44.1058 13.948 44.1058H29.1104C29.9192 44.1058 30.7274 43.7016 31.1322 42.8928L38.7134 29.651C39.1181 28.9427 39.1181 28.1339 38.714 27.3257ZM21.4287 33.188C18.9016 33.188 16.7786 31.0651 16.7786 28.538C16.7786 26.0109 18.9016 23.888 21.4287 23.888C23.9557 23.888 26.0787 26.0109 26.0787 28.538C26.0787 31.0657 24.0569 33.188 21.4287 33.188Z" fill="white"/>
</mask>
<g mask="url(#mask1_3735_1219)">
<path d="M16.1722 37.838L7.27687 22.3721L4.34507 27.4262C3.94097 28.1338 3.94097 29.0439 4.34507 29.7509L11.9263 42.8921C12.3304 43.5998 13.1392 44.1051 13.948 44.1051H23.3486L32.3451 28.5379L16.1722 37.838Z" fill="#FFCE40"/>
</g>
<mask id="mask2_3735_1219" style="mask-type:luminance" maskUnits="userSpaceOnUse" x="4" y="12" width="36" height="33">
<path d="M38.714 27.3257L34.064 19.138L31.1322 14.0839C30.7281 13.4774 30.0204 12.9722 29.1104 12.9722H13.9487C13.1398 12.9722 12.3316 13.3763 11.9269 14.1851L7.27687 22.3728L4.34507 27.4269C3.94097 28.1345 3.94097 29.0446 4.34507 29.7516L11.9263 42.8928C12.3304 43.6005 13.1392 44.1058 13.948 44.1058H29.1104C29.9192 44.1058 30.7274 43.7016 31.1322 42.8928L38.7134 29.651C39.1181 28.9427 39.1181 28.1339 38.714 27.3257ZM21.4287 33.188C18.9016 33.188 16.7786 31.0651 16.7786 28.538C16.7786 26.0109 18.9016 23.888 21.4287 23.888C23.9557 23.888 26.0787 26.0109 26.0787 28.538C26.0787 31.0657 24.0569 33.188 21.4287 33.188Z" fill="white"/>
</mask>
<g mask="url(#mask2_3735_1219)">
<path d="M34.0637 19.238H16.1719L32.2443 28.5374L23.2478 44.1046H29.1107C29.9196 44.1046 30.7278 43.7004 31.1325 42.8916L38.7137 29.6498C39.1178 28.9422 39.1178 28.0322 38.7137 27.3251L34.0637 19.238Z" fill="#DB4436"/>
</g>
<mask id="mask3_3735_1219" style="mask-type:luminance" maskUnits="userSpaceOnUse" x="4" y="12" width="36" height="33">
<path d="M38.714 27.3257L34.064 19.138L31.1322 14.0839C30.7281 13.4774 30.0204 12.9722 29.1104 12.9722H13.9487C13.1398 12.9722 12.3316 13.3763 11.9269 14.1851L7.27687 22.3728L4.34507 27.4269C3.94097 28.1345 3.94097 29.0446 4.34507 29.7516L11.9263 42.8928C12.3304 43.6005 13.1392 44.1058 13.948 44.1058H29.1104C29.9192 44.1058 30.7274 43.7016 31.1322 42.8928L38.7134 29.651C39.1181 28.9427 39.1181 28.1339 38.714 27.3257ZM21.4287 33.188C18.9016 33.188 16.7786 31.0651 16.7786 28.538C16.7786 26.0109 18.9016 23.888 21.4287 23.888C23.9557 23.888 26.0787 26.0109 26.0787 28.538C26.0787 31.0657 24.0569 33.188 21.4287 33.188Z" fill="white"/>
</mask>
<g mask="url(#mask3_3735_1219)">
<mask id="mask4_3735_1219" style="mask-type:luminance" maskUnits="userSpaceOnUse" x="16" y="19" width="24" height="26">
<path d="M34.0607 19.2388H16.1689L32.2413 28.5382L23.2448 44.1053H29.1078C29.9166 44.1053 30.7248 43.7012 31.1296 42.8923L38.7108 29.6506C39.1149 28.9429 39.1149 28.0329 38.7108 27.3259L34.0607 19.2388Z" fill="white"/>
</mask>
<g mask="url(#mask4_3735_1219)">
<mask id="mask5_3735_1219" style="mask-type:luminance" maskUnits="userSpaceOnUse" x="16" y="19" width="24" height="26">
<path d="M34.0598 19.2388H16.168L32.2404 28.5382L23.2439 44.1053H29.1068C29.9157 44.1053 30.7239 43.7012 31.1286 42.8923L38.7098 29.6506C39.1139 28.9429 39.1139 28.0329 38.7098 27.3259L34.0598 19.2388Z" fill="white"/>
</mask>
<g mask="url(#mask5_3735_1219)">
<path d="M26.8839 19.2388L32.2416 28.5388L26.8839 37.8382H16.1692L10.8115 28.5388L16.1692 19.2388H26.8839Z" fill="#EEEEEE"/>
</g>
<mask id="mask6_3735_1219" style="mask-type:luminance" maskUnits="userSpaceOnUse" x="16" y="19" width="24" height="26">
<path d="M34.0598 19.2388H16.168L32.2404 28.5382L23.2439 44.1053H29.1068C29.9157 44.1053 30.7239 43.7012 31.1286 42.8923L38.7098 29.6506C39.1139 28.9429 39.1139 28.0329 38.7098 27.3259L34.0598 19.2388Z" fill="white"/>
</mask>
<g mask="url(#mask6_3735_1219)">
<path d="M16.1707 19.2387H34.0625L31.1307 14.1846C30.7266 13.477 30.0189 12.9717 29.1089 12.9717H13.9472C13.1384 12.9717 12.3301 13.3758 11.9254 14.1846L7.27539 22.3723L16.1707 37.8382V19.2387Z" fill="#547DBF"/>
</g>
</g>
</g>
<mask id="mask7_3735_1219" style="mask-type:luminance" maskUnits="userSpaceOnUse" x="4" y="12" width="36" height="33">
<path d="M38.714 27.3257L34.064 19.138L31.1322 14.0839C30.7281 13.4774 30.0204 12.9722 29.1104 12.9722H13.9487C13.1398 12.9722 12.3316 13.3763 11.9269 14.1851L7.27687 22.3728L4.34507 27.4269C3.94097 28.1345 3.94097 29.0446 4.34507 29.7516L11.9263 42.8928C12.3304 43.6005 13.1392 44.1058 13.948 44.1058H29.1104C29.9192 44.1058 30.7274 43.7016 31.1322 42.8928L38.7134 29.651C39.1181 28.9427 39.1181 28.1339 38.714 27.3257ZM21.4287 33.188C18.9016 33.188 16.7786 31.0651 16.7786 28.538C16.7786 26.0109 18.9016 23.888 21.4287 23.888C23.9557 23.888 26.0787 26.0109 26.0787 28.538C26.0787 31.0657 24.0569 33.188 21.4287 33.188Z" fill="white"/>
</mask>
<g mask="url(#mask7_3735_1219)">
<mask id="mask8_3735_1219" style="mask-type:luminance" maskUnits="userSpaceOnUse" x="4" y="12" width="36" height="33">
<path d="M38.715 27.3259L34.065 19.1383L31.1332 14.0842C30.7291 13.4777 30.0214 12.9724 29.1114 12.9724H13.9496C13.1408 12.9724 12.3326 13.3765 11.9279 14.1853L7.27784 22.373L4.34604 27.4271C3.94194 28.1348 3.94194 29.0448 4.34604 29.7518L11.9272 42.8931C12.3313 43.6007 13.1402 44.106 13.949 44.106H29.1114C29.9202 44.106 30.7284 43.7019 31.1332 42.8931L38.7143 29.6513C39.1191 28.943 39.1191 28.1341 38.715 27.3259ZM21.4296 33.1883C18.9026 33.1883 16.7796 31.0653 16.7796 28.5382C16.7796 26.0112 18.9026 23.8882 21.4296 23.8882C23.9567 23.8882 26.0797 26.0112 26.0797 28.5382C26.0797 31.0659 24.0579 33.1883 21.4296 33.1883Z" fill="white"/>
</mask>
<g mask="url(#mask8_3735_1219)">
<mask id="mask9_3735_1219" style="mask-type:luminance" maskUnits="userSpaceOnUse" x="4" y="22" width="29" height="23">
<path d="M16.1741 37.8385L7.27882 22.3726L4.34702 27.4267C3.94292 28.1343 3.94292 29.0444 4.34702 29.7514L11.9282 42.8926C12.3323 43.6003 13.1411 44.1055 13.95 44.1055H23.3506L32.3471 28.5384L16.1741 37.8385Z" fill="white"/>
</mask>
<g mask="url(#mask9_3735_1219)">
<path d="M26.8888 19.2393L32.2465 28.5393L26.8888 37.8387H16.1741L10.8164 28.5393L16.1741 19.2393H26.8888Z" fill="#EEEEEE"/>
</g>
</g>
<mask id="mask10_3735_1219" style="mask-type:luminance" maskUnits="userSpaceOnUse" x="4" y="12" width="36" height="33">
<path d="M38.715 27.3259L34.065 19.1383L31.1332 14.0842C30.7291 13.4777 30.0214 12.9724 29.1114 12.9724H13.9496C13.1408 12.9724 12.3326 13.3765 11.9279 14.1853L7.27784 22.373L4.34604 27.4271C3.94194 28.1348 3.94194 29.0448 4.34604 29.7518L11.9272 42.8931C12.3313 43.6007 13.1402 44.106 13.949 44.106H29.1114C29.9202 44.106 30.7284 43.7019 31.1332 42.8931L38.7143 29.6513C39.1191 28.943 39.1191 28.1341 38.715 27.3259ZM21.4296 33.1883C18.9026 33.1883 16.7796 31.0653 16.7796 28.5382C16.7796 26.0112 18.9026 23.8882 21.4296 23.8882C23.9567 23.8882 26.0797 26.0112 26.0797 28.5382C26.0797 31.0659 24.0579 33.1883 21.4296 33.1883Z" fill="white"/>
</mask>
<g mask="url(#mask10_3735_1219)">
<mask id="mask11_3735_1219" style="mask-type:luminance" maskUnits="userSpaceOnUse" x="4" y="12" width="36" height="33">
<path d="M38.716 27.3262L34.0659 19.1385L31.1341 14.0844C30.73 13.4779 30.0224 12.9727 29.1124 12.9727H13.9506C13.1418 12.9727 12.3336 13.3768 11.9288 14.1856L7.27882 22.3732L4.34702 27.4274C3.94292 28.135 3.94292 29.045 4.34702 29.7521L11.9282 42.8933C12.3323 43.601 13.1411 44.1062 13.95 44.1062H29.1124C29.9212 44.1062 30.7294 43.7021 31.1341 42.8933L38.7153 29.6515C39.1201 28.9432 39.1201 28.1344 38.716 27.3262ZM21.4306 33.1885C18.9036 33.1885 16.7806 31.0655 16.7806 28.5385C16.7806 26.0114 18.9036 23.8885 21.4306 23.8885C23.9577 23.8885 26.0806 26.0114 26.0806 28.5385C26.0806 31.0662 24.0589 33.1885 21.4306 33.1885Z" fill="white"/>
</mask>
<g mask="url(#mask11_3735_1219)">
<path d="M26.8888 19.2385L32.2465 28.5386L26.8888 37.838H16.1741L10.8164 28.5386L16.1741 19.2385H26.8888Z" fill="#EEEEEE"/>
</g>
</g>
</g>
<path d="M134.744 28.9424C134.744 23.6859 138.788 19.6423 144.044 19.6423C146.774 19.6423 148.997 20.7541 150.615 22.5741L148.997 24.0906C147.784 22.5741 146.066 21.8671 144.044 21.8671C140.304 21.8671 137.171 24.5965 137.171 28.943C137.171 33.2895 140.304 36.0189 144.044 36.0189C146.268 36.0189 148.188 35.0083 149.502 33.3907L151.12 35.0077C149.604 36.8271 147.077 38.1412 144.044 38.1412C138.788 38.2424 134.744 34.3001 134.744 28.9424ZM152.838 37.8377V20.0471H155.163V37.8377H152.838ZM169.416 31.773C169.416 35.513 166.788 38.2424 163.149 38.2424C159.51 38.2424 156.882 35.4118 156.882 31.773C156.882 28.033 159.51 25.3036 163.149 25.3036C166.788 25.3036 169.416 28.033 169.416 31.773ZM167.091 31.773C167.091 28.9424 165.17 27.3253 163.148 27.3253C161.127 27.3253 159.206 28.9424 159.206 31.773C159.206 34.603 161.127 36.2206 163.148 36.2206C165.17 36.1195 167.091 34.5018 167.091 31.773ZM179.727 37.8377V36.1195H179.625C178.918 37.2312 177.401 38.2424 175.784 38.2424C172.651 38.2424 171.134 36.1195 171.134 33.0871V25.6071H173.459V32.683C173.459 35.2101 174.773 36.1201 176.491 36.1201C178.513 36.1201 179.726 34.1995 179.726 32.3801V25.7083H182.051V37.9395H179.726L179.727 37.8377ZM183.77 31.773C183.77 28.033 186.499 25.3036 189.531 25.3036C191.452 25.3036 192.968 26.3141 193.675 27.4265H193.777L193.675 25.7083V20.0477H196V37.8383H193.877V36.1201H193.776C193.068 37.2319 191.552 38.2431 189.631 38.2431C186.499 38.2424 183.77 35.513 183.77 31.773ZM193.878 31.773C193.878 28.9424 192.059 27.3253 190.037 27.3253C188.015 27.3253 186.196 28.9424 186.196 31.773C186.196 34.5024 188.015 36.2206 190.037 36.2206C191.958 36.1195 193.878 34.5018 193.878 31.773Z" fill="black"/>
<path d="M48.5127 28.0615C48.5127 22.427 53.234 17.8616 58.8679 17.8616C61.9766 17.8616 64.1912 19.0853 65.8623 20.6788L63.8806 22.6414C62.6957 21.5144 61.0831 20.64 58.8679 20.64C54.7683 20.64 51.5629 23.9428 51.5629 28.0424C51.5629 32.1419 54.7683 35.4447 58.8679 35.4447C61.5298 35.4447 63.045 34.3763 64.0162 33.4045C64.8129 32.6078 65.3373 31.4616 65.5314 29.9076H58.8672V27.1292H68.2513C68.3486 27.6345 68.4065 28.2174 68.4065 28.8779C68.4065 30.9761 67.8434 33.5604 65.9972 35.3862C64.1905 37.2514 61.8977 38.2423 58.8672 38.2423C53.234 38.2423 48.5127 33.6769 48.5127 28.0615ZM75.9648 25.1284C72.3317 25.1284 69.3783 27.8871 69.3783 31.6952C69.3783 35.4836 72.3311 38.262 75.9648 38.262C79.5979 38.262 82.5513 35.4836 82.5513 31.6952C82.5513 27.8871 79.5979 25.1284 75.9648 25.1284ZM75.9648 35.6579C73.9831 35.6579 72.2541 34.0262 72.2541 31.6755C72.2541 29.3049 73.964 27.6924 75.9648 27.6924C77.9465 27.6924 79.6756 29.3049 79.6756 31.6755C79.6762 34.0262 77.9465 35.6579 75.9648 35.6579ZM90.3419 25.1284C86.7088 25.1284 83.756 27.8871 83.756 31.6952C83.756 35.4836 86.7088 38.262 90.3419 38.262C93.975 38.262 96.9284 35.4836 96.9284 31.6952C96.9284 27.8871 93.975 25.1284 90.3419 25.1284ZM90.3419 35.6579C88.3602 35.6579 86.6312 34.0262 86.6312 31.6755C86.6312 29.3049 88.3411 27.6924 90.3419 27.6924C92.3433 27.6924 94.0526 29.3049 94.0526 31.6755C94.0526 34.0262 92.3236 35.6579 90.3419 35.6579ZM107.983 25.5166V26.5851H107.886C107.245 25.808 106.001 25.1087 104.428 25.1087C101.144 25.1087 98.1325 27.9838 98.1325 31.6945C98.1325 35.3665 101.144 38.2416 104.428 38.2416C106.001 38.2416 107.245 37.5422 107.886 36.7455H107.983V37.6975C107.983 40.2036 106.643 41.5444 104.486 41.5444C102.718 41.5444 101.63 40.2818 101.183 39.2127L98.6772 40.2621C99.3963 42.0109 101.319 44.1479 104.506 44.1479C107.886 44.1479 110.742 42.1662 110.742 37.3093V25.5166H107.983ZM104.68 35.6579C102.698 35.6579 101.027 33.9874 101.027 31.6945C101.027 29.3826 102.698 27.6924 104.68 27.6924C106.642 27.6924 108.177 29.3826 108.177 31.6945C108.197 34.0065 106.642 35.6579 104.68 35.6579Z" fill="black"/>
<path d="M115.598 18.5623H112.723V37.8547H115.598V18.5623Z" fill="black"/>
<path d="M123.506 35.6586C122.03 35.6586 121 34.9783 120.32 33.6769L129.101 30.0438L128.81 29.3056C128.265 27.8292 126.595 25.1284 123.195 25.1284C119.814 25.1284 116.997 27.7904 116.997 31.6952C116.997 35.3671 119.776 38.262 123.505 38.262C126.517 38.262 128.246 36.4165 128.984 35.3474L126.75 33.8513C125.993 34.9401 124.982 35.6586 123.506 35.6586ZM123.292 27.6542C124.438 27.6542 125.41 28.2174 125.721 29.053L119.853 31.4814C119.776 28.9562 121.816 27.6542 123.292 27.6542Z" fill="black"/>
</svg>
