<svg width="164" height="60" viewBox="0 0 164 60" fill="none" xmlns="http://www.w3.org/2000/svg">
<mask id="mask0_4087_4635" style="mask-type:luminance" maskUnits="userSpaceOnUse" x="11" y="15" width="142" height="30">
<path d="M153 15H11V44.2498H153V15Z" fill="white"/>
</mask>
<g mask="url(#mask0_4087_4635)">
<path d="M64.6249 36.2759V44.0323H65.9158V40.5934H69.5824V44.0323H70.8734V36.2759H69.5824V39.487H65.9158V36.2759H64.6249ZM75.6056 39.4761V37.3716H79.9231V36.2759H74.3148V44.0323H80.0316V42.9366H75.6056V40.5826H79.3916V39.4761H75.6056ZM83.1995 44.0323H86.2478C88.3957 44.0323 89.6649 42.6546 89.6649 40.1595C89.6649 37.6645 88.3523 36.2759 86.2152 36.2759H83.1995V44.0323ZM84.4904 37.3716H86.1502C87.8858 37.3716 88.374 38.6733 88.374 40.1595C88.374 41.6457 87.8858 42.9366 86.1502 42.9366H84.4904V37.3716ZM98.2175 38.6951H99.5085C99.2697 37.2089 98.185 36.1133 96.1673 36.1133C93.9325 36.1133 92.5223 37.8164 92.5223 40.1487C92.5223 42.4918 93.7807 44.1949 96.0262 44.1949C97.1978 44.1949 97.9246 43.7503 98.4453 42.9691H98.467L98.749 44.0323H99.6386V39.9643H96.1346V41.0057H98.326C98.3151 42.2423 97.3388 43.0885 96.113 43.0885C94.3448 43.0885 93.8132 41.6131 93.8132 40.1487C93.8132 38.6951 94.4967 37.2197 96.1564 37.2197C97.3063 37.2197 98.0222 37.773 98.2175 38.6951ZM104.251 39.4761V37.3716H108.569V36.2759H102.961V44.0323H108.677V42.9366H104.251V40.5826H108.037V39.4761H104.251ZM117.317 39.628V37.3716H121.45V36.2759H116.026V44.0323H117.317V40.7345H120.67V39.628H117.317ZM130.508 41.3854V36.2759H129.227V41.3854C129.227 42.5569 128.642 43.0885 127.449 43.0885C126.266 43.0885 125.681 42.5569 125.681 41.3854V36.2759H124.389V41.3854C124.389 43.0776 125.289 44.1949 127.449 44.1949C129.608 44.1949 130.508 43.0776 130.508 41.3854ZM133.849 44.0323H135.139V38.2286H135.161L138.665 44.0323H140.097V36.2759H138.807V42.1013H138.785L135.292 36.2759H133.849V44.0323ZM143.539 44.0323H146.587C148.735 44.0323 150.005 42.6546 150.005 40.1595C150.005 37.6645 148.691 36.2759 146.555 36.2759H143.539V44.0323ZM144.829 37.3716H146.49C148.225 37.3716 148.713 38.6733 148.713 40.1595C148.713 41.6457 148.225 42.9366 146.49 42.9366H144.829V37.3716Z" fill="#FB471E"/>
<path d="M77.0022 21.4444C77.426 21.4444 77.8093 21.5862 78.132 21.89C78.4347 22.214 78.5759 22.5786 78.5759 23.0241C78.5759 25.2115 77.8093 27.0545 76.2558 28.5937C74.7225 30.133 72.8866 30.9228 70.7077 30.9228C68.5289 30.9228 66.693 30.1532 65.1597 28.5937C63.6264 27.0545 62.8396 25.2115 62.8396 23.0241C62.8396 20.8368 63.6062 18.9938 65.1597 17.4546C66.693 15.9154 68.5289 15.1255 70.7077 15.1255C72.6244 15.1255 74.2988 15.7331 75.7514 16.9685C76.0743 17.252 76.2759 17.6166 76.3164 18.0419C76.3365 18.4875 76.2356 18.852 75.9532 19.1963C75.6707 19.5204 75.3075 19.7027 74.8839 19.7432C74.44 19.7837 74.077 19.6622 73.734 19.3786C72.8665 18.6495 71.8577 18.2647 70.7077 18.2647C69.3964 18.2647 68.3069 18.7305 67.379 19.6622C66.4509 20.5735 65.9868 21.6874 65.9868 23.0039C65.9868 24.3203 66.4509 25.4141 67.379 26.3457C68.2868 27.2773 69.3964 27.7431 70.7077 27.7431C71.7165 27.7431 72.6445 27.4596 73.4516 26.8722C74.2585 26.2849 74.8234 25.5355 75.1663 24.6039H72.0594C71.6156 24.6039 71.2525 24.4418 70.9296 24.1381C70.6271 23.8343 70.4859 23.4697 70.4859 23.0241C70.4859 22.5786 70.6271 22.214 70.9296 21.89C71.2525 21.5862 71.6156 21.4444 72.0594 21.4444H77.0022Z" fill="#FB471E"/>
<path d="M88.6817 30.9018C86.5028 30.9018 84.6669 30.1322 83.1336 28.5727C81.6004 27.0335 80.8135 25.1905 80.8135 23.0032C80.8135 20.8158 81.5802 18.9728 83.1336 17.4336C84.6669 15.8944 86.5028 15.1045 88.6817 15.1045C90.8605 15.1045 92.6964 15.8741 94.2298 17.4336C95.763 18.9728 96.5498 20.8158 96.5498 23.0032C96.5498 25.1905 95.7832 27.0335 94.2298 28.5727C92.6964 30.1322 90.8605 30.9018 88.6817 30.9018ZM88.6817 18.2842C87.3703 18.2842 86.2809 18.75 85.3528 19.6817C84.4248 20.5931 83.9608 21.707 83.9608 23.0234C83.9608 24.3399 84.4248 25.4336 85.3528 26.3651C86.2607 27.2968 87.3703 27.7626 88.6817 27.7626C89.993 27.7626 91.0824 27.2968 92.0105 26.3651C92.9385 25.4537 93.4026 24.3399 93.4026 23.0234C93.4026 21.707 92.9385 20.6133 92.0105 19.6817C91.0824 18.75 89.993 18.2842 88.6817 18.2842Z" fill="#FB471E"/>
<path d="M98.8921 18.2849C98.4483 18.2849 98.0851 18.1432 97.7624 17.8394C97.4597 17.5153 97.3185 17.1508 97.3185 16.7052C97.3185 16.2596 97.4597 15.8951 97.7624 15.5711C98.0851 15.2673 98.4483 15.1255 98.8921 15.1255H109.665C110.11 15.1255 110.472 15.2673 110.795 15.5711C111.098 15.8951 111.239 16.2596 111.239 16.7052C111.239 17.1508 111.098 17.5153 110.795 17.8394C110.472 18.1432 110.11 18.2849 109.665 18.2849H105.852V29.3431C105.852 29.7887 105.711 30.1532 105.409 30.457C105.086 30.7811 104.723 30.9228 104.279 30.9228C103.835 30.9228 103.472 30.7609 103.169 30.457C102.846 30.1532 102.705 29.7887 102.705 29.3431V18.2849H98.8921Z" fill="#FB471E"/>
<path d="M123.142 15.1255C124.453 15.1255 125.542 15.5913 126.471 16.5229C127.399 17.4343 127.862 18.5482 127.862 19.8647C127.862 20.8368 127.579 21.728 127.035 22.5381C128.185 23.49 128.77 24.6849 128.77 26.1634C128.77 27.4798 128.306 28.5735 127.378 29.5051C126.471 30.4367 125.361 30.9026 124.05 30.9026H115.96C115.516 30.9026 115.152 30.7406 114.85 30.4367C114.527 30.133 114.385 29.7684 114.385 29.3229V16.7052C114.385 16.2596 114.547 15.8951 114.85 15.5711C115.152 15.2673 115.516 15.1255 115.96 15.1255H123.142ZM117.533 21.4444H123.142C123.585 21.4444 123.949 21.2824 124.251 20.9786C124.573 20.6748 124.715 20.3102 124.715 19.8647C124.715 19.4191 124.554 19.0546 124.251 18.7508C123.949 18.4267 123.585 18.2849 123.142 18.2849H117.533V21.4444ZM124.05 27.7633C124.493 27.7633 124.856 27.6014 125.159 27.2975C125.482 26.9938 125.623 26.6292 125.623 26.1837C125.623 25.7381 125.462 25.3736 125.159 25.0697C124.856 24.7456 124.493 24.6039 124.05 24.6039H117.533V27.7633H124.05Z" fill="#FB471E"/>
<path d="M134.824 30.9028C134.38 30.9028 134.017 30.7611 133.694 30.4572C133.392 30.1332 133.25 29.7687 133.25 29.3231V16.7055C133.25 16.2599 133.392 15.8953 133.694 15.5713C134.017 15.2675 134.38 15.1257 134.824 15.1257C135.247 15.1257 135.631 15.2675 135.954 15.5713C136.256 15.8953 136.398 16.2599 136.398 16.7055V29.3434C136.398 29.7889 136.256 30.1535 135.954 30.4775C135.631 30.7611 135.247 30.9028 134.824 30.9028Z" fill="#FB471E"/>
<path d="M140.653 18.2849C140.209 18.2849 139.847 18.1432 139.524 17.8394C139.221 17.5153 139.08 17.1508 139.08 16.7052C139.08 16.2596 139.221 15.8951 139.524 15.5711C139.847 15.2673 140.209 15.1255 140.653 15.1255H151.426C151.871 15.1255 152.233 15.2673 152.557 15.5711C152.859 15.8951 153 16.2596 153 16.7052C153 17.1508 152.859 17.5153 152.557 17.8394C152.233 18.1432 151.871 18.2849 151.426 18.2849H147.614V29.3431C147.614 29.7887 147.472 30.1532 147.17 30.457C146.847 30.7811 146.484 30.9228 146.04 30.9228C145.596 30.9228 145.233 30.7609 144.93 30.457C144.608 30.1532 144.466 29.7887 144.466 29.3431V18.2849H140.653Z" fill="#FB471E"/>
<path d="M12.9628 30.7048C14.0469 30.7048 14.9257 29.8226 14.9257 28.7344C14.9257 27.6462 14.0469 26.7639 12.9628 26.7639C11.8788 26.7639 11 27.6462 11 28.7344C11 29.8226 11.8788 30.7048 12.9628 30.7048Z" fill="#FB471E"/>
<path d="M26.5845 38.7039C27.6685 38.7039 28.5473 37.8216 28.5473 36.7334C28.5473 35.6452 27.6685 34.7629 26.5845 34.7629C25.5004 34.7629 24.6216 35.6452 24.6216 36.7334C24.6216 37.8216 25.5004 38.7039 26.5845 38.7039Z" fill="#FB471E"/>
<path d="M54.7931 27.2562C54.3024 26.803 53.8706 26.7439 53.4781 26.7833C53.3995 26.7833 53.3406 26.7636 53.2621 26.7636H32.3971C33.3 22.2907 37.265 18.9212 41.9758 18.9212C44.5668 18.9212 47.0203 19.9261 48.8654 21.7586C49.6113 22.5074 50.8282 22.5665 51.5937 21.8572C52.4181 21.0887 52.4377 19.8079 51.6526 19.0197C49.0616 16.4187 45.6267 15 41.9758 15C38.7371 15 35.734 16.1429 33.3983 18.0542C32.3187 18.8818 31.5139 18.9212 29.8063 18.9212H26.5283C25.4291 18.9212 24.5458 19.8276 24.5655 20.9508C24.5851 22.0148 25.5273 22.8424 26.5872 22.8424H31.7887L29.8063 23.1971C29.5707 23.2365 29.3548 23.3941 29.2763 23.6306C29.0015 24.3399 28.8051 25.0887 28.6089 25.8375C28.4322 26.4877 27.4509 26.7833 26.0376 26.7833H18.9124C17.8329 26.7833 16.9104 27.6109 16.8711 28.6946C16.8318 29.798 17.7347 30.7242 18.8339 30.7242H31.141L29.1193 31.0591C28.7659 31.1182 28.55 31.4532 28.6286 31.808C30.0222 37.9163 35.4592 42.5075 41.9758 42.5075C49.2972 42.5075 55.3034 36.6947 55.6568 29.4237C55.6764 28.5961 55.382 27.808 54.7931 27.2562ZM41.9758 38.5469C37.2454 38.5469 33.3 35.1774 32.3971 30.7045H51.5545C50.6319 35.1774 46.6866 38.5469 41.9758 38.5469Z" fill="#FB471E"/>
</g>
</svg>
