<svg width="164" height="60" viewBox="0 0 164 60" fill="none" xmlns="http://www.w3.org/2000/svg">
<path d="M57.7269 39.0273C55.7593 40.9445 53.388 41.9031 50.6132 41.9031C47.8384 41.9031 45.4608 40.9381 43.4806 39.0084C41.5004 37.0787 40.5103 34.7389 40.5103 31.9893C40.5103 29.2398 41.5004 26.8875 43.4806 24.9325C45.4608 22.9774 47.8384 22 50.6132 22C53.388 22 55.7655 22.9774 57.7457 24.9325C59.7259 26.8875 60.7161 29.2398 60.7161 31.9893C60.7161 34.7389 59.7197 37.085 57.7269 39.0273ZM50.6132 36.9462C51.8997 36.9714 52.9907 36.5111 53.8862 35.5651C54.7817 34.6191 55.2295 33.4398 55.2295 32.0272C55.2295 30.5893 54.7817 29.3974 53.8862 28.4514C52.9907 27.5054 51.8997 27.0451 50.6132 27.0704C49.3267 27.0451 48.2356 27.5054 47.3402 28.4514C46.4446 29.3974 45.9969 30.5893 45.9969 32.0272C45.9969 33.4398 46.4446 34.6191 47.3402 35.5651C48.2356 36.5111 49.3267 36.9714 50.6132 36.9462Z" fill="black"/>
<path d="M70.3277 41.4485C68.3096 41.4485 66.7141 40.8683 65.5411 39.708C64.3681 38.5475 63.7816 36.9331 63.7816 34.8646V12.9939H69.079V33.8808C69.079 34.7889 69.3313 35.4637 69.8358 35.9052C70.3403 36.3466 70.9709 36.5673 71.7277 36.5673C72.1314 36.5673 72.4845 36.5169 72.7872 36.416L73.3169 41.0323C72.207 41.3098 71.2106 41.4485 70.3277 41.4485Z" fill="black"/>
<path fill-rule="evenodd" clip-rule="evenodd" d="M80.28 18.8966C79.6998 19.4767 79.0061 19.7668 78.1988 19.7668C77.3917 19.7668 76.6916 19.4767 76.0989 18.8966C75.506 18.3164 75.2096 17.61 75.2096 16.7776C75.2096 15.9956 75.506 15.3208 76.0989 14.7532C76.6916 14.1856 77.3917 13.9019 78.1988 13.9019C79.0061 13.9019 79.6998 14.1856 80.28 14.7532C80.8602 15.3208 81.1503 15.9956 81.1503 16.7776C81.1503 17.61 80.8602 18.3164 80.28 18.8966Z" fill="url(#paint0_linear_4087_4653)"/>
<path d="M75.5869 41.3732V22.6431H80.7708V41.3732H75.5869Z" fill="black"/>
<path d="M95.983 41.7134C93.4604 41.7134 91.4045 40.8053 89.8153 38.989V41.3728H84.5178V12.9939H89.8153V25.0266C91.3793 23.2103 93.4352 22.3022 95.983 22.3022C98.4803 22.3022 100.562 23.2292 102.226 25.0833C103.891 26.9374 104.724 29.2393 104.724 31.9889C104.724 34.7384 103.891 37.0466 102.226 38.9134C100.562 40.7801 98.4803 41.7134 95.983 41.7134ZM91.2153 35.6213C92.1487 36.5799 93.2964 37.0592 94.6586 37.0592C96.0208 37.0592 97.156 36.5799 98.0641 35.6213C98.9722 34.6628 99.4267 33.4519 99.4267 31.9889C99.4267 30.5258 98.9722 29.3149 98.0641 28.3563C97.156 27.3977 96.0208 26.9185 94.6586 26.9185C93.2964 26.9185 92.1487 27.4041 91.2153 28.3753C90.282 29.3465 89.8153 30.551 89.8153 31.9889C89.8153 33.4267 90.282 34.6376 91.2153 35.6213Z" fill="black"/>
<path d="M107.561 41.3737V22.6435H112.859V25.0652C114.322 23.1733 116.718 22.2525 120.048 22.303V27.9031C119.266 27.4742 118.357 27.2599 117.323 27.2599C116.112 27.2599 115.066 27.7518 114.182 28.7355C113.3 29.7193 112.859 31.0689 112.859 32.7842V41.3737H107.561Z" fill="black"/>
<path fill-rule="evenodd" clip-rule="evenodd" d="M127.275 18.8966C126.694 19.4767 126.001 19.7668 125.193 19.7668C124.386 19.7668 123.686 19.4767 123.094 18.8966C122.5 18.3164 122.204 17.61 122.204 16.7776C122.204 15.9956 122.5 15.3208 123.094 14.7532C123.686 14.1856 124.386 13.9019 125.193 13.9019C126.001 13.9019 126.694 14.1856 127.275 14.7532C127.855 15.3208 128.145 15.9956 128.145 16.7776C128.145 17.61 127.855 18.3164 127.275 18.8966Z" fill="url(#paint1_linear_4087_4653)"/>
<path d="M122.583 41.3732V22.6431H127.767V41.3732H122.583Z" fill="black"/>
<path d="M148.011 39.0273C146.043 40.9445 143.672 41.9031 140.897 41.9031C138.123 41.9031 135.745 40.9381 133.764 39.0084C131.784 37.0787 130.794 34.7389 130.794 31.9893C130.794 29.2398 131.784 26.8875 133.764 24.9325C135.745 22.9774 138.123 22 140.897 22C143.672 22 146.05 22.9774 148.03 24.9325C150.01 26.8875 151 29.2398 151 31.9893C151 34.7389 150.004 37.085 148.011 39.0273ZM140.897 36.9462C142.184 36.9714 143.275 36.5111 144.17 35.5651C145.066 34.6191 145.513 33.4398 145.513 32.0272C145.513 30.5893 145.066 29.3974 144.17 28.4514C143.275 27.5054 142.184 27.0451 140.897 27.0704C139.611 27.0451 138.52 27.5054 137.624 28.4514C136.728 29.3974 136.281 30.5893 136.281 32.0272C136.281 33.4398 136.728 34.6191 137.624 35.5651C138.52 36.5111 139.611 36.9714 140.897 36.9462Z" fill="black"/>
<path d="M13.061 18.5587L16.7557 18.9844H22.259C24.4581 18.9844 26.2408 20.7671 26.2408 22.9662V30.6827C27.7127 28.5287 28.6684 26.9532 29.1079 25.956C29.9131 24.1292 30.0876 22.1208 30.509 21.1976C31.112 19.8769 32.2411 19.0984 33.8965 18.8619L40.7846 18.6297L34.6193 31.9474L40.8656 47.4397C37.631 44.5886 33.8263 42.4535 29.4516 41.0347C22.8895 38.9065 21.2933 36.4235 20.7612 35.8914C20.2292 35.3594 18.5821 33.2222 18.5821 29.2436C18.5821 26.8697 18.1634 24.1861 17.326 21.1929C17.1399 20.5275 16.6456 19.9919 15.9973 19.7529L13.0362 18.6627C13.0083 18.6524 12.994 18.6215 13.0043 18.5936C13.0129 18.5703 13.0363 18.5559 13.061 18.5587ZM20.6661 20.7056C20.1764 20.7056 19.7794 21.1026 19.7794 21.5923C19.7794 22.082 20.1764 22.4791 20.6661 22.4791C21.1559 22.4791 21.5529 22.082 21.5529 21.5923C21.5529 21.1026 21.1559 20.7056 20.6661 20.7056Z" fill="url(#paint2_linear_4087_4653)"/>
<defs>
<linearGradient id="paint0_linear_4087_4653" x1="79.9278" y1="14.1063" x2="77.5989" y2="17.8585" gradientUnits="userSpaceOnUse">
<stop stop-color="#396AFC"/>
<stop offset="1" stop-color="#2948FF"/>
</linearGradient>
<linearGradient id="paint1_linear_4087_4653" x1="126.923" y1="14.1063" x2="124.593" y2="17.8585" gradientUnits="userSpaceOnUse">
<stop stop-color="#396AFC"/>
<stop offset="1" stop-color="#2948FF"/>
</linearGradient>
<linearGradient id="paint2_linear_4087_4653" x1="40.6973" y1="47.4397" x2="13.169" y2="19.5439" gradientUnits="userSpaceOnUse">
<stop stop-color="#6FB1FC"/>
<stop offset="0.510183" stop-color="#4364F7"/>
<stop offset="0.999332" stop-color="#0052D4"/>
</linearGradient>
</defs>
</svg>
