<svg width="164" height="60" viewBox="0 0 164 60" fill="none" xmlns="http://www.w3.org/2000/svg">
<path d="M29.58 7.00758C31.797 7.01517 34.0141 7.01517 36.2311 7C36.4415 11.52 38.4331 16.0248 42.1157 18.7247C44.6108 20.742 47.7899 21.508 50.9163 21.7658C50.9238 24.003 50.9238 26.2479 50.9163 28.4927C46.9256 28.7506 42.9048 30.2446 40.2068 33.3236C37.6966 35.978 36.5468 39.5879 36.2311 43.1751C34.0216 43.1675 31.812 43.1675 29.6025 43.1675C29.5574 35.3258 22.786 28.4851 15 28.5306C15.0075 26.263 15.0075 23.9955 15 21.7279C22.8085 21.7506 29.5649 14.8569 29.58 7.00758ZM26.7466 25.0951C29.0764 26.8925 31.1807 28.9705 32.8867 31.3897C34.6228 28.9629 36.7497 26.8546 39.1321 25.08C36.6971 23.3888 34.6378 21.2501 32.9018 18.846C31.2559 21.3032 29.1666 23.4115 26.7466 25.0951Z" fill="#00D5AA"/>
<path d="M86.3294 35.8722C90.6507 34.3023 95.8514 37.8667 96.0168 42.4929C96.1746 46.1028 96.0168 49.7203 96.0694 53.3302C94.927 53.3227 93.7847 53.3227 92.6423 53.3227C92.4695 49.4549 92.9881 45.5188 92.3718 41.689C91.1919 38.2307 85.7357 38.2383 84.6083 41.7345C83.9846 45.5492 84.4731 49.47 84.3303 53.3378C83.1579 53.3302 81.993 53.3227 80.8281 53.3151C80.9183 49.6672 80.6402 46.0042 80.9709 42.3715C81.2038 39.3607 83.451 36.6609 86.3294 35.8722Z" fill="black"/>
<path d="M138.178 35.8947C142.507 34.2642 147.783 37.8134 147.97 42.4699C148.046 46.095 147.948 49.7125 147.993 53.33C146.866 53.33 145.738 53.3225 144.619 53.3149C144.573 49.9628 144.679 46.6183 144.588 43.2662C144.611 41.2413 143.063 39.2923 141.019 39.0951C138.651 38.6401 136.254 40.7181 136.291 43.1221C136.171 46.5273 136.284 49.9325 136.246 53.33C135.104 53.33 133.969 53.3224 132.827 53.3224C132.857 49.9476 132.767 46.5728 132.849 43.198C132.782 39.9293 135.059 36.7972 138.178 35.8947Z" fill="black"/>
<path d="M45.8586 37.4492C49.6764 33.6952 56.786 35.7732 58.1163 40.9302C58.8152 45.0179 58.2891 49.1966 58.4544 53.3147C57.3046 53.3223 56.1547 53.3223 55.0124 53.3299C54.9072 49.6365 55.2153 45.9204 54.8771 42.2346C54.2533 38.3365 48.1508 37.9877 47.0084 41.7341C46.3997 45.5488 46.8957 49.4772 46.7379 53.3299C45.573 53.3223 44.4081 53.3147 43.2507 53.3071C43.8444 48.0742 41.5071 41.5142 45.8586 37.4492Z" fill="black"/>
<path d="M66.6534 35.9479C71.6061 34.0823 77.5508 37.988 78.0243 43.2664C78.2272 46.6109 78.0468 49.9705 78.0994 53.3226C76.9646 53.3226 75.8298 53.3226 74.6949 53.3226C74.6874 52.8979 74.6574 52.0333 74.6498 51.6011C70.3961 54.8015 63.6547 53.3529 61.3926 48.4158C58.8449 43.7669 61.6181 37.351 66.6534 35.9479ZM66.8563 39.6185C63.3391 41.2491 62.9408 46.7853 66.2476 48.8633C69.2538 51.2067 74.0261 49.1136 74.5822 45.3823C75.5291 41.2036 70.5539 37.4723 66.8563 39.6185Z" fill="black"/>
<path d="M100.571 36.5393C104.599 33.9836 111.318 35.7354 111.739 41.12C110.536 41.1427 109.334 41.1655 108.131 41.1882C107.943 40.7256 107.568 39.8004 107.372 39.3378C105.516 38.2154 102.931 38.1471 101.593 40.1113C101.796 40.5664 102.209 41.4764 102.412 41.9315C104.937 43.0463 107.808 43.3572 110.115 44.9347C112.272 46.497 112.355 49.9779 110.416 51.7602C106.463 55.3777 98.6917 53.6485 97.6846 47.9834C98.9322 47.9531 100.187 47.9379 101.443 47.9151C102.314 50.7212 106.237 51.5023 108.124 49.303C108.477 48.264 108.191 47.498 107.282 46.9899C104.847 45.731 101.848 45.7158 99.6687 43.9336C97.3615 42.0528 97.9101 37.8438 100.571 36.5393Z" fill="black"/>
<path d="M115 39.0038C118.097 34.59 125.116 34.3777 128.551 38.4806C130.429 40.4903 130.978 43.3418 130.82 46.0189C126.123 46.1175 121.418 45.9962 116.721 46.0948C117.631 47.748 118.916 49.3937 120.885 49.7274C122.914 50.2962 124.793 49.1359 126.258 47.8542C127.589 47.8315 128.919 47.8315 130.249 47.8466C128.22 52.4804 122.283 54.8769 117.819 52.2832C113.121 49.9094 111.596 43.0915 115 39.0038ZM116.811 42.5531C120.269 42.5986 123.733 42.6062 127.198 42.5455C126.07 40.7936 124.477 39.0266 122.23 39.0418C119.803 38.7915 117.886 40.551 116.811 42.5531Z" fill="black"/>
</svg>
