<svg width="200" height="58" viewBox="0 0 200 58" fill="none" xmlns="http://www.w3.org/2000/svg">
<path d="M41.8707 37.4753C41.3962 37.4753 41.159 37.3567 40.9218 37.2381C40.8032 37.0008 40.6846 36.7636 40.6846 36.4078V23.1231C40.6846 22.7673 40.8032 22.4115 40.9218 22.2929C41.159 22.0556 41.3962 21.937 41.8707 21.937H47.4455C49.5805 21.937 51.1225 22.4115 52.19 23.2418C53.1389 24.1907 53.732 25.4954 53.732 27.2746C53.732 29.0538 53.2575 30.3585 52.19 31.3074C51.2411 32.1377 49.5805 32.6122 47.4455 32.6122H45.3105V36.2892C45.3105 36.645 45.1919 37.0008 45.0732 37.1195C44.836 37.3567 44.5988 37.3567 44.1243 37.3567H41.8707V37.4753ZM47.0897 29.291C47.6827 29.291 48.1572 29.1724 48.513 28.8166C48.8689 28.4607 48.9875 27.9863 48.9875 27.2746C48.9875 26.5629 48.8689 26.0885 48.513 25.7326C48.1572 25.3768 47.6827 25.2582 47.0897 25.2582H45.3105V29.291H47.0897Z" fill="black"/>
<path d="M59.0697 37.8311C57.6464 37.8311 56.4602 37.3566 55.6299 36.4077C54.7996 35.4588 54.3252 34.1541 54.3252 32.4935C54.3252 31.1887 54.5624 30.1212 55.1555 29.1723C55.7485 28.2234 56.5788 27.5117 57.6464 26.9187C58.7139 26.4442 60.0186 26.0884 61.3234 26.0884C62.5095 26.0884 63.4584 26.207 64.4073 26.4442C65.3562 26.6814 66.0679 27.0373 66.8982 27.5117V36.6449C66.8982 36.8821 66.8982 37.1194 66.7795 37.238C66.6609 37.3566 66.4237 37.3566 66.1865 37.3566H63.8142C63.6956 37.3566 63.4584 37.3566 63.4584 37.238C63.3398 37.1194 63.3398 37.1194 63.2212 37.0008L62.8653 36.2891C62.3909 36.7635 61.9164 37.1194 61.3234 37.3566C60.7303 37.7124 59.9 37.8311 59.0697 37.8311ZM60.7303 34.7471C61.3234 34.7471 61.7978 34.6285 62.1536 34.2727C62.5095 34.0354 62.6281 33.561 62.6281 33.0865V29.5282C62.3909 29.4095 61.9164 29.2909 61.5606 29.2909C60.7303 29.2909 60.1372 29.5282 59.6628 30.1212C59.1883 30.7143 58.9511 31.426 58.9511 32.4935C58.9511 33.9168 59.5442 34.7471 60.7303 34.7471Z" fill="black"/>
<path d="M70.1002 37.475C69.6257 37.475 69.3885 37.3564 69.1513 37.2378C68.9141 37.0006 68.9141 36.7633 68.9141 36.4075V27.1557C68.9141 26.9185 68.9141 26.6812 69.0327 26.5626C69.1513 26.444 69.3885 26.444 69.6257 26.444H71.998C72.2352 26.444 72.3538 26.444 72.3538 26.5626C72.4724 26.5626 72.4724 26.6812 72.5911 26.7999L72.7097 27.5115C73.1841 27.0371 73.6586 26.7999 74.3703 26.5626C75.0819 26.3254 75.7936 26.2068 76.7425 26.2068C77.9286 26.2068 78.9961 26.5626 79.7078 27.2743C80.4195 27.986 80.894 28.9349 80.894 30.3582V36.4075C80.894 36.7633 80.7753 37.1192 80.6567 37.2378C80.5381 37.475 80.1823 37.475 79.7078 37.475H77.4542C76.9797 37.475 76.7425 37.3564 76.5053 37.2378C76.268 37.0006 76.2681 36.7633 76.2681 36.4075V30.5955C76.2681 30.121 76.1494 29.7652 75.9122 29.6466C75.675 29.4093 75.4378 29.2907 74.9633 29.2907C74.4889 29.2907 74.133 29.4093 73.8958 29.6466C73.6586 29.8838 73.54 30.2396 73.54 30.5955V36.2889C73.54 36.6447 73.4213 37.0006 73.3027 37.1192C73.1841 37.3564 72.8283 37.3564 72.3538 37.3564H70.1002V37.475Z" fill="black"/>
<path d="M88.9601 37.8308C86.8251 37.8308 85.1645 37.3564 83.9784 36.2889C82.7923 35.34 82.1992 33.9166 82.1992 32.0188C82.1992 30.8327 82.4364 29.8838 83.0295 28.9349C83.504 28.1046 84.3342 27.3929 85.2832 26.9185C86.3507 26.444 87.5368 26.2068 88.8415 26.2068C89.909 26.2068 90.7393 26.3254 91.451 26.5626C92.1627 26.7999 92.8744 27.0371 93.3488 27.5115C93.4674 27.6301 93.586 27.7488 93.586 27.8674C93.586 27.986 93.4674 28.1046 93.3488 28.3418L92.3999 30.0024C92.2813 30.2396 92.1627 30.3582 92.0441 30.3582C91.9255 30.3582 91.8069 30.2396 91.5696 30.121C91.2138 29.8838 90.7393 29.6466 90.3835 29.5279C90.0277 29.4093 89.5532 29.2907 89.0788 29.2907C88.3671 29.2907 87.6554 29.5279 87.181 30.0024C86.7065 30.4768 86.4693 31.1885 86.4693 32.0188C86.4693 32.8491 86.7065 33.5608 87.181 34.0352C87.6554 34.5097 88.2485 34.7469 89.0788 34.7469C89.5532 34.7469 90.0277 34.6283 90.3835 34.5097C90.7393 34.3911 91.2138 34.1538 91.5696 33.9166C91.8069 33.798 91.9255 33.6794 92.0441 33.6794C92.1627 33.6794 92.2813 33.798 92.3999 34.0352L93.4674 35.8144C93.586 35.933 93.586 36.0516 93.586 36.1703C93.586 36.2889 93.4674 36.4075 93.3488 36.5261C92.7558 36.8819 92.0441 37.2378 91.2138 37.475C90.858 37.7122 90.0277 37.8308 88.9601 37.8308Z" fill="black"/>
<path d="M99.7533 37.8311C98.3299 37.8311 97.1438 37.3566 96.3135 36.4077C95.4832 35.4588 95.0088 34.1541 95.0088 32.4935C95.0088 31.1887 95.246 30.1212 95.8391 29.1723C96.4321 28.2234 97.2624 27.5117 98.3299 26.9187C99.3975 26.4442 100.702 26.0884 102.007 26.0884C103.193 26.0884 104.142 26.207 105.091 26.4442C106.04 26.6814 106.751 27.0373 107.582 27.5117V36.6449C107.582 36.8821 107.582 37.1194 107.463 37.238C107.345 37.3566 107.107 37.3566 106.87 37.3566H104.498C104.379 37.3566 104.142 37.3566 104.142 37.238C104.023 37.1194 104.023 37.1194 103.905 37.0008L103.549 36.2891C103.074 36.7635 102.6 37.1194 102.007 37.3566C101.414 37.7124 100.702 37.8311 99.7533 37.8311ZM101.532 34.7471C102.126 34.7471 102.6 34.6285 102.956 34.2727C103.312 34.0354 103.43 33.561 103.43 33.0865V29.5282C103.193 29.4095 102.719 29.2909 102.363 29.2909C101.532 29.2909 100.939 29.5282 100.465 30.1212C99.9905 30.7143 99.7533 31.426 99.7533 32.4935C99.6347 33.9168 100.228 34.7471 101.532 34.7471Z" fill="black"/>
<path d="M122.052 36.645C122.171 36.7636 122.171 36.8822 122.171 37.0008C122.171 37.1195 122.171 37.2381 122.052 37.3567C121.933 37.4753 121.815 37.4753 121.696 37.4753H118.138C117.901 37.4753 117.782 37.4753 117.663 37.4753C117.545 37.4753 117.426 37.3567 117.307 37.2381L114.224 32.968V36.2892C114.224 36.645 114.105 37.0008 113.986 37.1195C113.749 37.3567 113.512 37.3567 113.037 37.3567H110.784C110.309 37.3567 110.072 37.2381 109.835 37.1195C109.716 36.8822 109.598 36.645 109.598 36.2892V23.1231C109.598 22.7673 109.716 22.4115 109.835 22.2929C110.072 22.0556 110.309 21.937 110.784 21.937H113.037C113.512 21.937 113.749 22.0556 113.986 22.2929C114.224 22.5301 114.224 22.7673 114.224 23.1231V30.7144L117.189 26.8001C117.307 26.6815 117.426 26.5629 117.545 26.5629C117.663 26.5629 117.782 26.4443 118.019 26.4443H121.578C121.696 26.4443 121.815 26.4443 121.933 26.5629C122.052 26.6815 122.052 26.8001 122.052 26.9188C122.052 27.0374 122.052 27.156 121.933 27.2746L118.019 31.7819L122.052 36.645Z" fill="black"/>
<path d="M129.407 37.8309C128.102 37.8309 127.035 37.5937 125.967 37.2378C125.018 36.7634 124.188 36.1703 123.595 35.34C123.002 34.5097 122.765 33.4422 122.765 32.2561C122.765 30.3583 123.358 28.8163 124.425 27.8674C125.493 26.7999 127.153 26.3254 129.17 26.3254C131.186 26.3254 132.728 26.7999 133.677 27.8674C134.745 28.8163 135.219 30.2397 135.219 32.0189C135.219 32.7305 134.863 33.205 134.27 33.205H127.153C127.153 33.9167 127.391 34.3911 127.865 34.747C128.339 35.1028 129.17 35.2214 130.119 35.2214C130.712 35.2214 131.305 35.2214 131.661 35.1028C132.135 34.9842 132.491 34.747 132.965 34.6283C133.203 34.5097 133.321 34.5097 133.321 34.5097C133.44 34.5097 133.558 34.6283 133.677 34.747L134.507 36.1703C134.626 36.2889 134.626 36.4075 134.626 36.5261C134.626 36.6448 134.507 36.7634 134.389 36.882C133.796 37.2378 133.084 37.5937 132.254 37.8309C131.305 37.7123 130.474 37.8309 129.407 37.8309ZM131.186 30.7141C131.186 30.1211 131.068 29.6466 130.712 29.4094C130.356 29.0535 129.881 28.9349 129.17 28.9349C128.458 28.9349 127.984 29.0535 127.628 29.4094C127.272 29.7652 127.153 30.1211 127.153 30.7141H131.186Z" fill="black"/>
<path d="M143.166 37.8308C141.861 37.8308 140.675 37.7122 139.489 37.475C138.303 37.2378 137.473 36.7633 136.761 36.2889C136.524 36.1703 136.405 35.933 136.405 35.8144C136.405 35.6958 136.405 35.5772 136.524 35.4586L137.591 33.6794C137.71 33.4422 137.829 33.4422 137.947 33.4422C138.066 33.4422 138.184 33.4422 138.303 33.5608C138.896 33.9166 139.489 34.1538 140.201 34.3911C140.913 34.6283 141.624 34.7469 142.336 34.7469C143.048 34.7469 143.522 34.6283 143.878 34.3911C144.234 34.1538 144.352 33.798 144.352 33.3236C144.352 32.8491 144.115 32.4933 143.759 32.256C143.403 32.0188 142.692 31.663 141.624 31.3071C140.082 30.7141 138.896 30.121 138.066 29.4093C137.236 28.6977 136.761 27.6301 136.761 26.444C136.761 24.9021 137.354 23.8345 138.422 23.0042C139.489 22.174 140.913 21.8181 142.692 21.8181C143.996 21.8181 145.064 21.9367 145.894 22.174C146.843 22.4112 147.555 22.767 148.148 23.1229C148.385 23.3601 148.504 23.4787 148.504 23.7159C148.504 23.8345 148.504 23.9531 148.385 24.0718L147.318 25.851C147.199 26.0882 147.08 26.0882 146.962 26.0882C146.843 26.0882 146.725 26.0882 146.606 25.9696C145.776 25.3765 144.708 25.1393 143.403 25.1393C142.692 25.1393 142.217 25.2579 141.861 25.4951C141.506 25.7323 141.387 26.0882 141.387 26.5626C141.387 26.9185 141.506 27.1557 141.624 27.3929C141.861 27.6301 142.099 27.7488 142.336 27.986C142.692 28.1046 143.166 28.3418 143.759 28.579L144.234 28.6977C145.301 29.1721 146.25 29.5279 146.843 30.0024C147.555 30.3582 148.029 30.9513 148.385 31.5444C148.741 32.1374 148.86 32.8491 148.86 33.6794C148.86 34.9841 148.385 36.1703 147.318 36.8819C146.606 37.3564 145.064 37.8308 143.166 37.8308Z" fill="black"/>
<path d="M153.96 37.4748C153.723 37.4748 153.604 37.4748 153.486 37.3562C153.367 37.2376 153.249 37.119 153.249 36.8818L150.283 27.0369C150.283 26.9183 150.283 26.9183 150.283 26.7997C150.283 26.5625 150.402 26.4438 150.758 26.4438H153.723C153.96 26.4438 154.079 26.4438 154.197 26.5625C154.316 26.6811 154.316 26.6811 154.435 26.9183L155.621 32.1373L157.163 27.9858C157.281 27.7486 157.281 27.63 157.4 27.63C157.519 27.5114 157.637 27.5114 157.874 27.5114H159.298C159.535 27.5114 159.654 27.5114 159.772 27.63C159.891 27.7486 159.891 27.8672 160.009 27.9858L161.551 32.1373L162.856 26.9183C162.856 26.7997 162.975 26.6811 163.093 26.5625C163.212 26.4438 163.331 26.4438 163.449 26.4438H166.533C166.889 26.4438 167.008 26.5625 167.008 26.7997C167.008 26.7997 167.008 26.9183 167.008 27.0369L164.042 36.8818C163.924 37.119 163.924 37.2376 163.805 37.3562C163.686 37.4748 163.568 37.4748 163.331 37.4748H161.077C160.84 37.4748 160.721 37.4748 160.603 37.3562C160.484 37.2376 160.365 37.119 160.365 36.8818L158.823 32.7303L157.281 36.8818C157.163 37.119 157.163 37.2376 157.044 37.3562C156.926 37.4748 156.807 37.4748 156.57 37.4748H153.96Z" fill="black"/>
<path d="M172.463 37.8311C171.04 37.8311 169.854 37.3566 169.023 36.4077C168.193 35.4588 167.719 34.1541 167.719 32.4935C167.719 31.1887 167.956 30.1212 168.549 29.1723C169.142 28.2234 169.972 27.5117 171.04 26.9187C172.107 26.4442 173.412 26.0884 174.717 26.0884C175.903 26.0884 176.852 26.207 177.801 26.4442C178.75 26.6814 179.461 27.0373 180.292 27.5117V36.6449C180.292 36.8821 180.292 37.1194 180.173 37.238C180.054 37.3566 179.817 37.3566 179.58 37.3566H177.208C177.089 37.3566 176.971 37.3566 176.852 37.238C176.733 37.1194 176.733 37.1194 176.615 37.0008L176.259 36.2891C175.784 36.7635 175.31 37.1194 174.717 37.3566C174.124 37.7124 173.412 37.8311 172.463 37.8311ZM174.242 34.7471C174.836 34.7471 175.31 34.6285 175.666 34.2727C176.022 34.0354 176.14 33.561 176.14 33.0865V29.5282C175.903 29.4095 175.429 29.2909 175.073 29.2909C174.242 29.2909 173.649 29.5282 173.175 30.1212C172.7 30.7143 172.463 31.426 172.463 32.4935C172.345 33.9168 172.938 34.7471 174.242 34.7471Z" fill="black"/>
<path d="M183.495 42.1009C183.02 42.1009 182.783 41.9823 182.546 41.8637C182.427 41.6265 182.309 41.3893 182.309 41.0334V27.986C183.02 27.5116 183.851 27.0371 184.918 26.7999C185.986 26.4441 187.053 26.3254 188.121 26.3254C192.747 26.3254 195 28.2232 195 32.1375C195 33.9167 194.526 35.34 193.577 36.4075C192.628 37.475 191.205 37.9495 189.425 37.9495C188.951 37.9495 188.476 37.8309 188.002 37.7123C187.528 37.5937 187.172 37.475 186.816 37.2378V41.0334C186.816 41.3893 186.697 41.7451 186.579 41.8637C186.341 42.1009 186.104 42.1009 185.63 42.1009H183.495ZM188.476 34.747C189.188 34.747 189.663 34.5097 189.9 34.0353C190.256 33.5608 190.374 32.8491 190.374 32.0189C190.374 31.07 190.137 30.3583 189.781 29.8838C189.425 29.528 188.832 29.2908 188.002 29.2908C187.528 29.2908 187.053 29.4094 186.816 29.528V33.0864C186.816 33.5608 186.935 34.0353 187.29 34.2725C187.528 34.6283 188.002 34.747 188.476 34.747Z" fill="black"/>
<path fill-rule="evenodd" clip-rule="evenodd" d="M10.4382 19.3273C9.96371 16.9551 11.8615 14.7014 14.2338 14.7014C16.3688 14.7014 18.148 16.4806 18.148 18.6156V23.3602C18.7411 23.3602 19.2155 23.3602 19.8086 23.3602C20.283 23.3602 20.8761 23.3602 21.3505 23.3602V18.6156C21.3505 16.4806 23.1297 14.7014 25.2648 14.7014C27.637 14.7014 29.5348 16.9551 29.0604 19.3273L27.9929 24.9021C31.5512 26.4441 34.2793 29.1722 34.2793 32.6119V34.6284C34.2793 37.4751 32.3815 39.8473 29.7721 41.3893C27.1626 43.0499 23.6042 43.9988 19.69 43.9988C15.7757 43.9988 12.2174 43.0499 9.60787 41.3893C6.99839 39.8473 5.10059 37.4751 5.10059 34.6284V32.6119C5.10059 29.1722 7.82868 26.4441 11.3871 24.9021L10.4382 19.3273ZM26.6881 25.7324L27.8742 19.2087C28.2301 17.5481 26.9253 16.0062 25.2648 16.0062C23.7228 16.0062 22.5367 17.1923 22.5367 18.7343V24.7835C22.1808 24.7835 21.7064 24.6649 21.3505 24.6649C20.8761 24.6649 20.283 24.6649 19.8086 24.6649C19.2155 24.6649 18.7411 24.6649 18.148 24.7835C17.7922 24.7835 17.3177 24.9021 16.9619 24.9021V18.8529C16.9619 17.3109 15.7757 16.1248 14.2338 16.1248C12.5732 16.1248 11.2685 17.6667 11.6243 19.3273L12.8104 25.9696C9.01481 27.393 6.40533 30.0025 6.40533 32.9678V34.9842C6.40533 39.4915 12.336 43.1685 19.69 43.1685C27.044 43.1685 32.9746 39.4915 32.9746 34.9842V32.9678C33.0932 29.7652 30.4837 27.1558 26.6881 25.7324Z" fill="#633001"/>
<path d="M33.0937 34.7469C33.0937 39.2542 27.163 42.9312 19.809 42.9312C12.4551 42.9312 6.52441 39.2542 6.52441 34.7469V32.7305H33.2123V34.7469H33.0937Z" fill="#FEDC90"/>
<path fill-rule="evenodd" clip-rule="evenodd" d="M11.6243 19.09C11.2685 17.4294 12.5732 15.8875 14.2338 15.8875C15.7758 15.8875 16.9619 17.0736 16.9619 18.6155V24.7834C17.9108 24.6648 18.8597 24.5462 19.8086 24.5462C20.7575 24.5462 21.7064 24.6648 22.5367 24.6648V18.6155C22.5367 17.0736 23.7228 15.8875 25.2648 15.8875C26.9254 15.8875 28.2301 17.4294 27.8743 19.09L26.6881 25.6137C30.6024 27.0371 33.2119 29.6465 33.2119 32.6119C33.2119 37.1191 27.2812 40.7961 19.9272 40.7961C12.5732 40.7961 6.64258 37.1191 6.64258 32.6119C6.64258 29.6465 9.25206 27.0371 13.0477 25.6137L11.6243 19.09Z" fill="#D1884F"/>
<path d="M16.1319 32.1377C16.1319 33.3238 15.4202 34.3913 14.7085 34.3913C13.9968 34.3913 13.2852 33.4424 13.2852 32.1377C13.2852 30.9516 13.9968 29.884 14.7085 29.884C15.4202 29.884 16.1319 30.8329 16.1319 32.1377Z" fill="#633001"/>
<path d="M26.3321 32.1377C26.3321 33.3238 25.6204 34.3913 24.9087 34.3913C24.0784 34.3913 23.4854 33.4424 23.4854 32.1377C23.4854 30.9516 24.197 29.884 24.9087 29.884C25.6204 29.884 26.3321 30.8329 26.3321 32.1377Z" fill="#633001"/>
</svg>
