<svg width="164" height="58" viewBox="0 0 164 58" fill="none" xmlns="http://www.w3.org/2000/svg">
<path d="M29.9288 13H31.4173C31.9326 13.0599 32.3684 13.3467 32.7914 13.6209C31.5478 14.7808 29.7348 14.6925 28.243 15.3418C26.3378 16.1392 24.3626 17.0816 23.1095 18.7804C22.1298 20.0317 21.694 21.5823 21.3346 23.0984C20.8989 24.9233 19.3785 26.3542 17.6323 26.9846C15.5681 27.7378 13.6024 28.986 12.4065 30.8581C9.83015 34.4607 11.6527 40.3294 15.9212 41.7382C17.9218 42.419 20.3709 42.4851 22.1139 41.1393C24.4517 39.3617 25.3582 36.2982 25.3805 33.4805C25.3772 31.8226 26.1056 30.1301 27.451 29.112C28.5325 28.3619 29.8111 27.9144 30.8131 27.0444C32.5274 25.6797 33.5834 23.6216 33.9046 21.4815C34.2481 19.8394 33.9333 18.15 34.21 16.5016C34.2609 16.0068 34.7602 15.7704 35.0751 15.449C36.0611 16.6214 35.9657 18.2131 36.1279 19.6377C36.4364 23.3001 34.6776 27.0287 31.6591 29.1562C30.2596 30.2436 28.0204 30.6564 27.6737 32.6799C27.5115 34.8483 27.4256 37.0892 26.4237 39.078C25.3995 41.3537 23.5197 43.3929 21.0452 44.0895C17.8455 44.931 14.159 44.0863 11.8213 41.7161C10.0973 40.0204 9.1972 37.6471 9 35.277V33.9658C9.26718 30.4862 11.7481 27.5582 14.7157 25.8846C15.7971 25.2384 17.0852 24.9863 18.1095 24.2393C18.9619 23.5901 19.2259 22.509 19.4644 21.5256C19.9987 19.2438 21.2456 17.0942 23.119 15.6412C25.056 14.0748 27.502 13.3625 29.9288 13Z" fill="#F65425"/>
<path d="M142.534 13H143.264C143.703 13.3087 144.279 13.6332 144.304 14.2507C144.444 16.1251 144.311 18.0154 144.358 19.8961C145.48 19.915 146.617 19.7859 147.726 19.9906C149.076 20.4033 148.941 22.514 147.667 22.9393C146.592 23.1599 145.486 23.0118 144.398 23.037C144.432 24.9871 144.32 26.9434 144.444 28.8903C144.676 31.4011 147.243 33.3323 149.686 32.7747C151.03 32.6298 151.905 31.5335 152.971 30.8435C154.199 30.2859 155.586 31.9147 154.741 33.0235C152.223 36.5047 146.657 36.9268 143.659 33.8521C142.435 32.4502 141.36 30.7049 141.421 28.7643C141.459 24.0357 141.409 19.307 141.443 14.5815C141.325 13.8096 141.948 13.3308 142.534 13Z" fill="black"/>
<path d="M122.88 19.8866C123.812 19.5327 124.893 20.3468 124.847 21.3701C124.893 23.6098 124.831 25.8496 124.862 28.0893C124.868 30.0136 126.065 31.8929 127.847 32.5301C129.887 33.4215 132.306 32.2887 133.362 30.3902C133.459 27.2751 133.315 24.1505 133.421 21.0323C133.592 19.4072 136.119 19.3524 136.282 21.0162C136.31 24.4465 136.384 27.8898 136.238 31.317C134.917 34.8535 130.632 36.7779 127.171 35.5454C124.139 34.5478 121.974 31.3909 121.915 28.1247C121.886 25.8624 121.899 23.6002 121.905 21.3379C121.824 20.675 122.273 20.0604 122.88 19.8866Z" fill="black"/>
<path d="M45.5204 28.2831C45.555 24.6798 48.351 21.2179 51.9876 20.7373C54.3113 20.3415 56.7673 21.1677 58.4297 22.8201C60.448 24.7489 61.2635 27.815 60.4921 30.4915C59.7427 33.2497 57.3969 35.565 54.5537 36.0739C52.4568 36.5011 50.2528 35.898 48.5272 34.676C48.5399 37.0477 48.543 39.4196 48.5336 41.7945C48.5587 42.4353 48.2912 43.2019 47.6268 43.4249C46.5783 43.9464 45.3724 42.8406 45.5109 41.7599C45.5077 37.2677 45.4889 32.7754 45.5204 28.2831ZM52.1608 23.7625C50.5518 24.1175 49.2704 25.4055 48.8044 26.9668C47.9416 29.5082 49.5758 32.7345 52.334 33.1272C55.0481 33.6832 57.737 31.2989 57.7055 28.5784C57.9227 25.6977 55.0417 22.9992 52.1608 23.7625Z" fill="black"/>
<path d="M67.0722 23.0447C68.9921 20.8803 72.2201 20.1517 74.9736 20.9603C78.3015 21.8672 80.6928 25.3106 80.2496 28.6956C80.056 29.5134 79.1913 29.8885 78.4014 29.8024C75.0329 29.7132 71.6614 29.8055 68.2897 29.7255C68.9047 31.3642 70.4063 32.6432 72.1921 32.8431C73.7623 33.0736 75.1672 32.2036 76.5533 31.6256C77.8332 31.3704 78.8353 33.1198 77.9394 34.0697C75.1734 36.3079 70.7997 36.6554 67.9713 34.328C64.4498 31.7578 64.0003 26.1162 67.0722 23.0447ZM68.2398 26.6296C71.2305 26.6542 74.2243 26.6665 77.212 26.6234C76.5221 24.7081 74.5179 23.4198 72.4636 23.5459C70.5874 23.6351 68.9391 24.9478 68.2398 26.6296Z" fill="black"/>
<path d="M84.3139 24.6571C85.7411 20.9866 90.1383 18.8314 93.8092 20.2111C96.8442 21.2935 98.9479 24.4923 98.9579 27.7589C98.9763 29.9238 98.9893 32.0918 98.9548 34.2535C99.062 35.3359 97.8046 36.3117 96.8412 35.7592C96.2443 35.5201 96.0958 34.8383 95.8938 34.2922C93.474 36.092 90.0281 36.3279 87.466 34.7027C84.2159 32.7284 82.778 28.2016 84.3139 24.6571ZM90.2929 23.0641C88.4861 23.4454 87.1943 25.1224 86.863 26.9189C86.2722 29.6589 88.3376 32.6444 91.1239 32.7607C93.9164 33.0257 96.219 30.1888 95.9252 27.4423C95.8402 24.6377 92.9812 22.3307 90.2929 23.0641Z" fill="black"/>
<path d="M108.432 21.0216C110.889 20.1964 113.816 20.7145 115.717 22.5077C116.644 23.2243 117.572 24.155 117.594 25.4084C117.7 28.0889 117.597 30.7755 117.644 33.4591C117.669 34.2378 117.675 35.215 116.854 35.609C115.982 36.152 114.696 35.426 114.727 34.4147C114.671 31.5108 114.73 28.6039 114.702 25.7C113.741 24.6142 112.517 23.578 110.983 23.5594C108.654 23.3795 106.452 25.2843 106.237 27.577C106.112 29.941 106.277 32.3143 106.168 34.6783C106.052 36.1551 103.745 36.3753 103.28 35.001C103.161 33.5584 103.264 32.1064 103.233 30.6608C103.264 29.1995 103.095 27.7011 103.513 26.2802C104.185 23.8914 106.043 21.8096 108.432 21.0216Z" fill="black"/>
</svg>
