<svg width="164" height="60" viewBox="0 0 164 60" fill="none" xmlns="http://www.w3.org/2000/svg">
<g clip-path="url(#clip0_1550_10511)">
<path d="M66.9443 24.8309C67.8418 25.3984 68.5647 26.191 69.0363 27.1248C69.6039 28.1977 69.8825 29.3927 69.8461 30.5984C69.8785 31.7907 69.5751 32.9691 68.9688 34.0064C68.4474 34.9596 67.6173 35.7197 66.6068 36.1692C65.5045 36.653 64.3073 36.899 63.0976 36.8901C62.3805 36.8936 61.6697 36.76 61.0056 36.4969C60.3456 36.3162 59.7424 35.9783 59.251 35.5138V42.0677H55.3369V24.3066H58.7111V25.7485C60.0585 24.6531 61.7462 24.0298 63.5026 23.9789C64.7159 23.8778 65.9288 24.1781 66.9443 24.8309ZM64.9872 32.9578C65.3274 32.6634 65.595 32.2985 65.7702 31.8901C65.9454 31.4817 66.0238 31.0402 65.9995 30.5984C66.0088 30.1389 65.9241 29.6821 65.7504 29.2546C65.5766 28.8271 65.3172 28.4373 64.9872 28.1079C64.6955 27.8033 64.3395 27.5636 63.9434 27.4052C63.5473 27.2468 63.1207 27.1735 62.6927 27.1903C61.9019 27.2318 61.1556 27.5591 60.6007 28.1079C60.0302 28.3879 59.5772 28.851 59.3185 29.4187V32.3024C59.5167 32.8619 59.8954 33.3446 60.3983 33.6787C60.9566 34.0478 61.6127 34.2526 62.2878 34.2686C62.8081 34.25 63.3182 34.1234 63.7838 33.8973C64.2494 33.6712 64.6598 33.3508 64.9872 32.9578V32.9578Z" fill="#8247E5"/>
<path d="M72.1403 27.1904C72.7548 26.2293 73.615 25.439 74.6372 24.8965C75.8275 24.3089 77.1489 24.0162 78.4838 24.0445C79.7543 24.0151 81.0105 24.3088 82.128 24.8965C83.1339 25.4662 83.9708 26.2791 84.5575 27.2559C85.1607 28.2226 85.4652 29.3373 85.4348 30.4673C85.4669 31.6182 85.1627 32.7543 84.5575 33.7443C83.9974 34.7242 83.1524 35.522 82.128 36.0381C81.0023 36.6046 79.7517 36.8969 78.4838 36.8902C77.2306 36.8996 75.9892 36.654 74.8397 36.1692C73.8146 35.6603 72.9514 34.89 72.3427 33.9409C71.7599 32.871 71.4585 31.6777 71.4654 30.4673C71.395 29.3367 71.6275 28.2077 72.1403 27.1904V27.1904ZM76.1219 32.8923C76.3994 33.1779 76.7342 33.4055 77.1055 33.561C77.4768 33.7165 77.877 33.7968 78.2814 33.7968C78.6858 33.7968 79.0859 33.7165 79.4573 33.561C79.8286 33.4055 80.1633 33.1779 80.4409 32.8923C80.9953 32.2012 81.2819 31.3428 81.2507 30.4673C81.2964 29.6099 81.0072 28.7672 80.4409 28.1079C80.198 27.8316 79.8985 27.6074 79.5616 27.4494C79.2247 27.2915 78.8577 27.2033 78.4838 27.1904C78.0328 27.1434 77.5768 27.2022 77.1541 27.3618C76.7313 27.5215 76.3542 27.7773 76.0544 28.1079C75.51 28.8041 75.2245 29.6589 75.2446 30.5329C75.2306 31.397 75.5426 32.2362 76.1219 32.8923V32.8923Z" fill="#8247E5"/>
<path d="M91.5762 15V36.5624H87.6621V15H91.5762Z" fill="#8247E5"/>
<path d="M107.638 24.6998L99.6748 42.3953H95.8957L98.865 35.8414L93.1963 24.5032H97.6503L100.89 31.5814L104.129 24.5032L107.638 24.6998Z" fill="#8247E5"/>
<path d="M122.619 24.6998V36.5624C122.633 37.6685 122.278 38.7494 121.606 39.6427C120.936 40.5976 120 41.3477 118.907 41.8055C117.747 42.3362 116.478 42.605 115.195 42.592C114.322 42.7048 113.437 42.7048 112.564 42.592L110.741 41.2157C110.128 40.87 109.561 40.4517 109.054 39.9704L111.349 37.3489C111.845 37.8244 112.414 38.2223 113.036 38.5286C113.689 38.8331 114.404 38.9899 115.128 38.9874C116.018 39.0112 116.893 38.7586 117.625 38.2664C117.981 38.1003 118.29 37.8523 118.525 37.5439C118.761 37.2356 118.915 36.8762 118.975 36.4969V34.6618C118.559 35.3237 117.947 35.8489 117.22 36.1692C116.336 36.5779 115.365 36.7799 114.386 36.759C113.288 36.773 112.209 36.477 111.281 35.907C110.333 35.3381 109.545 34.55 108.987 33.6131C108.415 32.6336 108.113 31.5276 108.11 30.4017C108.101 29.2536 108.404 28.1236 108.987 27.1248C109.555 26.156 110.368 25.344 111.349 24.7654C112.253 24.1971 113.309 23.9007 114.386 23.9134C115.301 23.9012 116.213 24.0341 117.085 24.3066C117.785 24.5115 118.414 24.8965 118.907 25.4208L118.975 24.6998H122.619ZM118.975 31.9747V29.0909C118.719 28.5047 118.268 28.0196 117.692 27.7146C117.054 27.365 116.333 27.1842 115.6 27.1903C114.708 27.164 113.84 27.4687 113.171 28.0423C112.833 28.3523 112.567 28.7293 112.393 29.1477C112.218 29.5662 112.138 30.0162 112.159 30.4673C112.151 30.9168 112.236 31.3633 112.41 31.7799C112.584 32.1966 112.843 32.5749 113.171 32.8922C113.823 33.5079 114.691 33.8594 115.6 33.8753C116.285 33.8727 116.957 33.6958 117.549 33.3623C118.141 33.0288 118.632 32.5503 118.975 31.9747V31.9747Z" fill="#8247E5"/>
<path d="M125.723 27.1902C126.343 26.2159 127.201 25.4054 128.22 24.8308C129.35 24.274 130.598 23.9821 131.865 23.9788C133.135 23.9494 134.391 24.2431 135.509 24.8308C136.515 25.4006 137.351 26.2134 137.938 27.1902C138.521 28.1891 138.824 29.3191 138.815 30.4672C138.848 31.618 138.543 32.7542 137.938 33.7441C137.399 34.7394 136.548 35.5426 135.509 36.038C134.371 36.5737 133.128 36.8643 131.865 36.89C130.603 36.9095 129.355 36.6401 128.22 36.1036C127.18 35.6155 126.312 34.8403 125.723 33.8752C125.105 32.8187 124.801 31.6161 124.846 30.4016C124.823 29.2725 125.127 28.1598 125.723 27.1902V27.1902ZM129.638 32.8921C129.915 33.1778 130.25 33.4053 130.621 33.5609C130.992 33.7164 131.393 33.7966 131.797 33.7966C132.201 33.7966 132.602 33.7164 132.973 33.5609C133.344 33.4053 133.679 33.1778 133.957 32.8921C134.511 32.201 134.798 31.3427 134.766 30.4672C134.85 29.6267 134.61 28.7859 134.092 28.1078C133.82 27.8133 133.487 27.579 133.115 27.4206C132.742 27.2623 132.339 27.1837 131.932 27.1902C131.526 27.1879 131.124 27.2684 130.752 27.4265C130.38 27.5845 130.046 27.8166 129.773 28.1078C129.474 28.4258 129.243 28.7979 129.092 29.2027C128.942 29.6076 128.875 30.0372 128.895 30.4672C128.928 31.3432 129.234 32.1888 129.773 32.8921H129.638Z" fill="#8247E5"/>
<path d="M152.717 25.0274C153.096 25.3448 153.4 25.7371 153.609 26.1779C153.819 26.6187 153.929 27.0979 153.932 27.5834V36.5623H150.018V29.0908C150.018 27.9111 149.411 27.3213 148.196 27.3213C147.753 27.3181 147.318 27.4324 146.938 27.6519C146.557 27.8713 146.245 28.1876 146.036 28.5665C145.469 29.5211 145.189 30.6109 145.227 31.7124V36.5623H141.312V24.6997H144.889V26.5348C145.322 25.774 145.98 25.1574 146.779 24.7652C147.626 24.2513 148.615 23.9999 149.613 24.0443C150.737 23.9913 151.842 24.3412 152.717 25.0274V25.0274Z" fill="#8247E5"/>
<path d="M38.6014 24.5032C38.2526 24.3076 37.8569 24.2046 37.4541 24.2046C37.0514 24.2046 36.6557 24.3076 36.3069 24.5032L31.2456 27.4524L27.6689 29.4842L22.4051 32.499C22.0563 32.6945 21.6606 32.7975 21.2578 32.7975C20.8551 32.7975 20.4594 32.6945 20.1106 32.499L15.7241 30.074C15.3648 29.8809 15.0675 29.595 14.865 29.248C14.6625 28.901 14.5628 28.5064 14.5768 28.1078V23.5201C14.5548 23.1202 14.6511 22.7225 14.8544 22.3741C15.0577 22.0257 15.3595 21.7411 15.7241 21.5539L19.8406 19.3256C20.1894 19.13 20.5851 19.027 20.9879 19.027C21.3906 19.027 21.7863 19.13 22.1351 19.3256L26.2517 21.5539C26.5961 21.747 26.883 22.0237 27.0841 22.3569C27.2852 22.6901 27.3937 23.0684 27.3989 23.4546V26.4694L31.2456 24.5687V21.5539C31.2511 21.1313 31.1162 20.7181 30.8609 20.3758C30.6057 20.0334 30.2436 19.7801 29.8284 19.6533L22.2026 15C21.8436 14.8363 21.4519 14.7515 21.0554 14.7515C20.6588 14.7515 20.2671 14.8363 19.9081 15L12.1474 19.5877C11.7828 19.7749 11.4811 20.0595 11.2778 20.4079C11.0745 20.7563 10.9781 21.154 11.0002 21.5539V30.2051C10.991 30.5941 11.0935 30.9778 11.2961 31.3135C11.4987 31.6491 11.7935 31.9234 12.1474 32.1057L19.9081 36.4313C20.2569 36.6269 20.6526 36.7298 21.0554 36.7298C21.4581 36.7298 21.8538 36.6269 22.2026 36.4313L27.4664 33.482L31.2456 31.4503L36.5094 28.5011C36.8582 28.3055 37.2538 28.2025 37.6566 28.2025C38.0594 28.2025 38.455 28.3055 38.8038 28.5011L42.9204 30.7949C43.2648 30.988 43.5517 31.2647 43.7528 31.5979C43.9539 31.9311 44.0624 32.3094 44.0676 32.6956V37.3488C44.0768 37.7378 43.9743 38.1216 43.7717 38.4572C43.5691 38.7929 43.2743 39.0672 42.9204 39.2495L38.8038 41.6744C38.455 41.87 38.0594 41.973 37.6566 41.973C37.2538 41.973 36.8582 41.87 36.5094 41.6744L32.3928 39.3806C32.0568 39.1783 31.7766 38.8995 31.5767 38.5683C31.3768 38.2371 31.2631 37.8635 31.2456 37.4799V34.6617L27.6689 36.6279V39.7083C27.7124 40.0087 27.8186 40.2974 27.9811 40.5567C28.1435 40.8159 28.3588 41.0401 28.6136 41.2157L36.3744 45.5412C36.7334 45.7049 37.1251 45.7898 37.5216 45.7898C37.9182 45.7898 38.3099 45.7049 38.6689 45.5412L46.4296 41.2157C46.774 41.0226 47.0609 40.7459 47.262 40.4127C47.4631 40.0795 47.5716 39.7012 47.5768 39.315V30.7949C47.586 30.406 47.4835 30.0222 47.2809 29.6865C47.0783 29.3509 46.7835 29.0766 46.4296 28.8943L38.6014 24.5032Z" fill="#8247E5"/>
</g>
<defs>
<clipPath id="clip0_1550_10511">
<rect width="143" height="31" fill="white" transform="translate(11 15)"/>
</clipPath>
</defs>
</svg>
