<svg width="164" height="60" viewBox="0 0 164 60" fill="none" xmlns="http://www.w3.org/2000/svg">
<path d="M71.8929 23.4373L66.7363 36.6381L61.6339 23.4373V23.4105H57.6172L57.6443 23.4373L64.9722 41.1097V41.1365H68.5818V41.1097L75.9097 23.4373L75.9368 23.4105L71.8929 23.4373ZM145.47 35.8348C145.47 37.0933 145.117 38.1911 144.385 39.0747C143.679 39.9316 142.729 40.601 141.671 40.9491C140.503 41.3507 139.255 41.5382 138.007 41.5114C134.071 41.5114 131.466 40.0387 130.299 37.1468L130.244 37.0397V37.0129H130.272L133.23 35.4867H133.257V35.5135L133.311 35.6473C133.637 36.5042 134.288 37.2004 135.103 37.6288C136.025 38.084 137.03 38.325 138.034 38.2982C139.146 38.2982 140.069 38.084 140.802 37.6824C141.508 37.2807 141.86 36.6916 141.86 35.8616C141.86 34.5495 140.558 33.7462 137.979 33.4785C137.111 33.3981 136.215 33.2375 135.374 33.0233C134.614 32.8358 133.908 32.5413 133.203 32.1664C132.497 31.7915 131.927 31.2292 131.574 30.5331C131.194 29.8636 131.032 29.0336 131.032 28.0696C131.032 26.9182 131.384 25.9275 132.117 25.0974C132.796 24.2942 133.691 23.7051 134.695 23.3838C135.727 23.0624 136.812 22.875 137.925 22.875C141.399 22.875 143.733 24.0532 144.9 26.4095L144.954 26.5166V26.5434H144.927L142.105 27.9893H142.078V27.9625L142.023 27.8554C141.725 27.3467 141.209 26.9182 140.476 26.5434C139.716 26.1685 138.902 25.9811 138.061 25.9811C136.921 25.9811 136.052 26.1953 135.483 26.5969C134.913 26.9986 134.641 27.5073 134.641 28.1232C134.641 28.3374 134.668 28.5248 134.777 28.7123C134.858 28.8997 134.994 29.0603 135.157 29.1675C135.537 29.462 135.971 29.6762 136.432 29.7833C137.084 29.944 137.708 30.0511 138.359 30.1314C139.174 30.2385 139.879 30.3456 140.503 30.4795C141.155 30.6134 141.806 30.8276 142.403 31.0954C143 31.3363 143.543 31.6577 144.032 32.0861C144.493 32.5145 144.846 33.05 145.063 33.6123C145.334 34.3621 145.47 35.1118 145.47 35.8348ZM92.7367 23.4373L92.7638 26.9182H83.0204V30.5866H92.411V33.9337H83.0204V37.5217H92.7638V41.0562H79.4651V23.4105H92.7367V23.4373ZM121.831 23.4641L118.221 23.4373V23.4641L110.893 41.1365L110.866 41.1633H114.883V41.1365L120.04 27.9357L125.142 41.1365V41.1633H129.159L129.132 41.1365L121.831 23.4641ZM99.9017 37.5485H108.831V37.7627V41.083H96.3192V23.4373H99.9017V37.5485Z" fill="black"/>
<path d="M38.0767 28.5111L32.4827 38.3568L26.8886 28.5111H38.0767ZM43.6708 25.2114H21.2676L32.4827 44.9026L43.6708 25.2114ZM17.5293 18.6387L19.385 21.9116H45.5265L47.3822 18.6387H17.5293Z" fill="#0037C1"/>
</svg>
