<svg width="200" height="58" viewBox="0 0 200 58" fill="none" xmlns="http://www.w3.org/2000/svg">
<path fill-rule="evenodd" clip-rule="evenodd" d="M70.3661 28.5306L51.8233 10.0073V23.573L33.4121 37.1552L51.8233 37.168V47.0539L70.3661 28.5306Z" fill="#4E529A"/>
<path fill-rule="evenodd" clip-rule="evenodd" d="M5 28.5233L23.5428 47.0465V33.6244L41.8192 20.0332L23.5428 20.0207V10L5 28.5233Z" fill="#8C8DFC"/>
<path d="M98.9107 39.438H84.6836V35.3525L92.8282 26.2734H84.8933V22.2578H98.7709V26.1339L90.3813 35.3874H98.9107V39.438Z" fill="black"/>
<path d="M118.326 22.2575L111.44 29.4858L118.466 39.4377H112.768L108.224 32.8729L106.302 34.8983V39.4377H101.652V14.1562H106.302V28.6477L112.244 22.2575H118.326Z" fill="black"/>
<path d="M138.547 20.5814L134.212 21.9084C134.049 21.0237 133.606 20.2206 132.884 19.4989C132.162 18.7772 131.1 18.4165 129.702 18.4165C128.561 18.4165 127.629 18.7307 126.906 19.3592C126.184 19.9646 125.823 20.6979 125.823 21.5591C125.823 23.0723 126.72 24.0035 128.514 24.3526L131.975 25.0161C134.165 25.4352 135.866 26.3082 137.078 27.6351C138.291 28.962 138.897 30.5218 138.897 32.3143C138.897 34.3629 138.081 36.1553 136.449 37.6918C134.841 39.205 132.674 39.9614 129.947 39.9614C128.386 39.9614 126.976 39.7287 125.718 39.2632C124.459 38.7975 123.446 38.1806 122.677 37.4124C121.908 36.6209 121.302 35.7945 120.859 34.9333C120.439 34.0486 120.183 33.1406 120.09 32.2094L124.564 31.0222C124.681 32.3491 125.194 33.4549 126.102 34.3396C127.034 35.2242 128.328 35.6665 129.982 35.6665C131.241 35.6665 132.22 35.3871 132.919 34.8284C133.641 34.2696 134.002 33.5364 134.002 32.6286C134.002 31.9069 133.734 31.2901 133.198 30.7778C132.686 30.2424 131.952 29.8816 130.997 29.6953L127.535 28.997C125.531 28.5779 123.947 27.7515 122.781 26.5176C121.616 25.2838 121.034 23.7474 121.034 21.9084C121.034 19.7201 121.873 17.8811 123.551 16.3912C125.252 14.9013 127.291 14.1562 129.667 14.1562C131.09 14.1562 132.36 14.3541 133.478 14.7499C134.596 15.1456 135.494 15.681 136.169 16.3561C136.845 17.0081 137.369 17.6832 137.742 18.3815C138.116 19.0799 138.384 19.8133 138.547 20.5814Z" fill="black"/>
<path d="M146.727 46.2122H141.798L145.853 37.273L138.547 22.2578H143.756L148.335 32.3145L152.565 22.2578H157.529L146.727 46.2122Z" fill="black"/>
<path d="M163.945 29.5557V39.4378H159.295V22.2576H163.805V24.3878C164.294 23.5497 164.993 22.9094 165.902 22.4671C166.811 22.0249 167.766 21.8037 168.768 21.8037C170.795 21.8037 172.334 22.4439 173.383 23.7242C174.455 24.9814 174.991 26.6108 174.991 28.613V39.4378H170.342V29.416C170.342 28.3918 170.073 27.5653 169.537 26.9368C169.024 26.3083 168.232 25.994 167.16 25.994C166.182 25.994 165.401 26.3316 164.819 27.0067C164.236 27.6817 163.945 28.5315 163.945 29.5557Z" fill="black"/>
<path d="M186.387 26.029C185.152 26.029 184.115 26.4596 183.277 27.321C182.438 28.1823 182.018 29.3579 182.018 30.8478C182.018 32.3377 182.438 33.5249 183.277 34.4095C184.139 35.2709 185.187 35.7015 186.422 35.7015C187.517 35.7015 188.391 35.4222 189.045 34.8634C189.697 34.2815 190.14 33.5947 190.373 32.8032L194.462 34.1652C194.043 35.7481 193.134 37.1099 191.736 38.2507C190.338 39.3913 188.567 39.9616 186.422 39.9616C183.859 39.9616 181.704 39.1004 179.955 37.3777C178.231 35.6318 177.369 33.455 177.369 30.8478C177.369 28.2172 178.219 26.0406 179.92 24.3179C181.646 22.5953 183.766 21.7339 186.282 21.7339C188.474 21.7339 190.268 22.3043 191.666 23.445C193.064 24.5624 193.961 25.9242 194.357 27.5305L190.198 28.9273C189.639 26.9951 188.369 26.029 186.387 26.029Z" fill="black"/>
</svg>
